<svg width="361" height="555" viewBox="0 0 361 555" fill="none" xmlns="http://www.w3.org/2000/svg">
<mask id="mask0_8_6691" style="mask-type:luminance" maskUnits="userSpaceOnUse" x="0" y="0" width="361" height="555">
<path d="M0.462891 6.10352e-05L0.462891 554.404H360.061L360.061 6.10352e-05H0.462891Z" fill="white"/>
</mask>
<g mask="url(#mask0_8_6691)">
<path d="M251.677 514.319C251.677 520.254 257.185 525.083 263.947 525.083C270.709 525.083 276.216 520.254 276.216 514.319C276.216 508.384 270.708 503.555 263.947 503.555C257.186 503.555 251.677 508.383 251.677 514.319ZM268.694 514.319C268.623 515.487 268.084 516.579 267.195 517.359C266.306 518.139 265.138 518.543 263.947 518.483C262.755 518.543 261.587 518.139 260.698 517.359C259.808 516.579 259.269 515.486 259.198 514.318C259.269 513.15 259.808 512.057 260.698 511.277C261.587 510.497 262.755 510.093 263.947 510.153C265.139 510.093 266.306 510.497 267.196 511.278C268.085 512.058 268.623 513.151 268.694 514.319Z" fill="#D1E4FF" fill-opacity="0.32"/>
<path d="M242.209 514.319C242.209 524.834 251.961 533.389 263.947 533.389C275.932 533.389 285.683 524.834 285.683 514.319C285.683 503.804 275.932 495.249 263.947 495.249C251.961 495.249 242.209 503.804 242.209 514.319ZM281.923 514.319C281.923 523.019 273.86 530.09 263.948 530.09C254.036 530.09 245.97 523.015 245.97 514.319C245.97 505.623 254.035 498.548 263.947 498.548C273.859 498.548 281.923 505.624 281.923 514.319Z" fill="#D1E4FF" fill-opacity="0.32"/>
<path d="M266.406 482.716C265.59 482.667 264.764 482.643 263.947 482.643H263.853L263.864 485.562C263.111 485.562 262.367 485.593 261.628 485.64L261.395 482.721C260.579 482.77 259.753 482.846 258.947 482.944L259.404 485.844C258.661 485.934 257.925 486.044 257.199 486.176L256.516 483.316C255.716 483.462 254.909 483.636 254.122 483.832L255.028 486.651C254.314 486.83 253.6 487.026 252.897 487.251L251.775 484.495C251.006 484.737 250.236 485.005 249.485 485.295L250.824 487.981C250.144 488.244 249.473 488.527 248.811 488.831L247.263 486.231C246.538 486.562 245.816 486.921 245.121 487.296L246.864 489.796C246.228 490.138 245.609 490.505 245.002 490.882L243.064 488.487C242.398 488.902 241.738 489.344 241.106 489.798L243.221 492.068C242.643 492.483 242.086 492.916 241.543 493.368L239.252 491.227C238.656 491.718 238.07 492.233 237.518 492.758L239.966 494.758C239.459 495.237 238.97 495.73 238.497 496.237L235.897 494.373C235.381 494.931 234.877 495.511 234.409 496.098L237.143 497.795C236.715 498.329 236.298 498.872 235.91 499.433L233.054 497.914C232.633 498.524 232.225 499.158 231.85 499.795L234.822 501.144C234.479 501.724 234.156 502.314 233.858 502.917L230.798 501.754C230.471 502.414 230.169 503.092 229.896 503.771L233.041 504.745C232.792 505.36 232.569 505.984 232.37 506.617L229.153 505.834C228.935 506.526 228.74 507.234 228.576 507.934L231.84 508.52C231.69 509.158 231.575 509.805 231.475 510.456L228.161 510.071C228.053 510.779 227.971 511.503 227.916 512.22L231.242 512.412C231.195 513.043 231.163 513.678 231.163 514.319V514.374L227.838 514.379C227.838 515.097 227.87 515.824 227.926 516.537L231.254 516.337C231.307 516.994 231.383 517.644 231.484 518.288L228.18 518.688C228.292 519.4 228.433 520.117 228.601 520.818L231.866 520.218C232.02 520.861 232.204 521.495 232.407 522.118L229.191 522.912C229.414 523.603 229.665 524.297 229.941 524.973L233.079 523.995C233.33 524.612 233.608 525.22 233.906 525.816L230.845 526.989C231.173 527.646 231.53 528.303 231.909 528.939L234.877 527.583C235.223 528.163 235.585 528.735 235.973 529.292L233.119 530.821C233.545 531.433 234.002 532.039 234.475 532.621L237.205 530.921C237.638 531.455 238.085 531.977 238.556 532.484L235.967 534.344C236.485 534.9 237.031 535.444 237.591 535.971L240.034 533.962C240.544 534.439 241.072 534.901 241.617 535.348L239.335 537.495C239.934 537.985 240.559 538.462 241.195 538.915L243.303 536.637C243.882 537.05 244.479 537.443 245.089 537.821L243.161 540.221C243.83 540.636 244.523 541.034 245.222 541.407L246.956 538.907C247.593 539.246 248.25 539.561 248.912 539.863L247.372 542.468C248.101 542.799 248.851 543.111 249.603 543.397L250.929 540.708C251.609 540.969 252.304 541.209 253.014 541.428L251.901 544.189C252.671 544.428 253.464 544.647 254.247 544.84L255.143 542.017C255.857 542.192 256.581 542.355 257.316 542.488L256.647 545.348C257.451 545.495 258.269 545.613 259.08 545.71L259.526 542.81C260.261 542.897 261.003 542.964 261.752 543.01L261.532 545.925C262.33 545.972 263.142 545.995 263.948 545.995H263.99V543.078C264.742 543.078 265.485 543.047 266.225 543.001L266.454 545.92C267.27 545.871 268.097 545.797 268.903 545.7L268.449 542.8C269.191 542.711 269.928 542.6 270.654 542.47L271.332 545.331C272.132 545.185 272.939 545.012 273.728 544.818L272.823 541.995C273.543 541.816 274.251 541.621 274.954 541.401L276.077 544.158C276.846 543.917 277.616 543.65 278.367 543.363L277.03 540.677C277.715 540.414 278.387 540.132 279.046 539.829L280.59 542.429C281.316 542.098 282.036 541.739 282.732 541.366L280.992 538.866C281.63 538.524 282.248 538.159 282.856 537.781L284.794 540.181C285.461 539.766 286.12 539.326 286.754 538.873L284.641 536.6C285.219 536.185 285.778 535.752 286.322 535.306L288.611 537.454C289.207 536.964 289.793 536.454 290.351 535.924L287.903 533.924C288.413 533.446 288.905 532.954 289.375 532.446L291.971 534.295C292.487 533.738 292.991 533.159 293.46 532.572L290.726 530.878C291.157 530.343 291.573 529.801 291.964 529.24L294.82 530.763C295.245 530.149 295.652 529.514 296.029 528.876L293.059 527.526C293.404 526.947 293.726 526.357 294.026 525.755L297.086 526.921C297.413 526.261 297.717 525.583 297.991 524.906L294.845 523.928C295.093 523.314 295.317 522.688 295.52 522.056L298.732 522.842C298.952 522.151 299.147 521.442 299.312 520.742L296.048 520.152C296.199 519.514 296.316 518.869 296.417 518.216L299.724 518.609C299.833 517.9 299.916 517.176 299.971 516.459L296.645 516.259C296.695 515.616 296.727 514.97 296.727 514.316V514.298H300.053C300.053 513.58 300.025 512.853 299.968 512.139L296.642 512.339C296.59 511.681 296.514 511.03 296.414 510.386L299.718 509.986C299.607 509.274 299.467 508.558 299.302 507.854L296.038 508.448C295.885 507.804 295.701 507.17 295.499 506.548L298.716 505.757C298.494 505.066 298.243 504.372 297.969 503.695L294.824 504.677C294.573 504.058 294.299 503.451 294.001 502.854L297.061 501.684C296.735 501.027 296.378 500.37 296 499.734L293.032 501.087C292.687 500.505 292.327 499.932 291.94 499.375L294.79 497.851C294.366 497.239 293.911 496.632 293.438 496.051L290.705 497.751C290.273 497.217 289.826 496.693 289.355 496.187L291.949 494.334C291.432 493.777 290.887 493.234 290.328 492.706L287.88 494.706C287.369 494.229 286.842 493.766 286.298 493.319L288.583 491.174C287.986 490.684 287.359 490.205 286.726 489.752L284.614 492.026C284.037 491.613 283.44 491.22 282.83 490.841L284.768 488.441C284.099 488.026 283.406 487.627 282.707 487.252L280.973 489.752C280.336 489.411 279.681 489.097 279.018 488.793L280.56 486.193C279.831 485.862 279.081 485.549 278.331 485.263L277.005 487.944C276.325 487.684 275.631 487.443 274.923 487.222L276.04 484.462C275.268 484.223 274.477 484.002 273.694 483.809L272.795 486.63C272.081 486.453 271.357 486.292 270.624 486.158L271.299 483.298C270.497 483.153 269.68 483.03 268.869 482.933L268.418 485.833C267.684 485.746 266.942 485.679 266.192 485.633L266.406 482.716ZM291.092 514.316C291.09 527.448 278.912 538.13 263.948 538.13C248.984 538.13 236.806 527.448 236.806 514.319C236.806 501.19 248.98 490.508 263.948 490.508C278.916 490.508 291.09 501.195 291.09 514.319L291.092 514.316Z" fill="#D1E4FF" fill-opacity="0.32"/>
<path d="M243.155 96.3811C243.155 101.635 248.026 105.91 254.015 105.91C260.005 105.91 264.876 101.635 264.876 96.3811C264.876 91.1271 260.005 86.8541 254.015 86.8541C248.026 86.8541 243.155 91.1271 243.155 96.3811ZM258.219 96.3811C258.156 97.415 257.679 98.3828 256.892 99.0735C256.104 99.7643 255.07 100.122 254.015 100.069C252.96 100.122 251.926 99.7643 251.139 99.0735C250.352 98.3828 249.875 97.415 249.812 96.3811C249.875 95.3471 250.352 94.3794 251.139 93.6886C251.926 92.9979 252.96 92.6401 254.015 92.6931C255.07 92.6401 256.104 92.9979 256.892 93.6886C257.679 94.3794 258.156 95.3471 258.219 96.3811Z" fill="#D1E4FF" fill-opacity="0.32"/>
<path d="M234.773 96.3811C234.773 105.69 243.406 113.262 254.016 113.262C264.625 113.262 273.258 105.69 273.258 96.3811C273.258 87.0721 264.625 79.5001 254.016 79.5001C243.406 79.5001 234.773 87.0741 234.773 96.3811ZM269.927 96.3811C269.927 104.081 262.787 110.34 254.015 110.34C245.242 110.34 238.102 104.079 238.102 96.3811C238.102 88.6831 245.242 82.4221 254.015 82.4221C262.787 82.4221 269.927 88.6831 269.927 96.3811Z" fill="#D1E4FF" fill-opacity="0.32"/>
<path d="M256.192 68.4061C255.472 68.3641 254.739 68.3431 254.014 68.3431H253.932L253.941 70.9261C253.275 70.9261 252.615 70.9551 251.962 70.9941L251.758 68.4111C251.035 68.4551 250.305 68.5221 249.588 68.6111L249.997 71.1751C249.339 71.2561 248.688 71.3511 248.045 71.4751L247.44 68.9421C246.732 69.0721 246.017 69.2271 245.321 69.3991L246.123 71.8991C245.486 72.0581 244.855 72.2301 244.236 72.4261L243.241 69.9861C242.56 70.2001 241.879 70.4381 241.215 70.6921L242.4 73.0701C241.795 73.3027 241.201 73.5531 240.619 73.8211L239.248 71.5211C238.604 71.8031 237.965 72.1221 237.353 72.4521L238.897 74.6651C238.332 74.9651 237.787 75.2921 237.249 75.6271L235.533 73.5081C234.944 73.8751 234.36 74.2651 233.799 74.6671L235.672 76.6771C235.162 77.0441 234.667 77.4281 234.187 77.8251L232.159 75.9251C231.631 76.3591 231.112 76.8161 230.62 77.2801L232.783 79.0541C232.334 79.4771 231.899 79.9131 231.483 80.3631L229.183 78.7221C228.726 79.2161 228.284 79.7291 227.867 80.2491L230.289 81.7491C229.907 82.2221 229.54 82.7041 229.193 83.2011L226.666 81.8561C226.291 82.4011 225.931 82.9621 225.599 83.5271L228.234 84.7221C227.928 85.2351 227.644 85.7581 227.381 86.2911L224.669 85.2611C224.38 85.8451 224.112 86.4461 223.87 87.0471L226.656 87.9101C226.437 88.4534 226.239 89.0057 226.061 89.5671L223.213 88.8731C223.019 89.4861 222.848 90.1111 222.703 90.7351L225.589 91.2521C225.456 91.8171 225.355 92.3891 225.266 92.9661L222.338 92.6221C222.243 93.2501 222.17 93.8921 222.123 94.5221L225.068 94.6921C225.026 95.2521 224.996 95.8131 224.996 96.3811V96.4291L222.052 96.4351C222.052 97.0711 222.081 97.7141 222.13 98.3451L225.075 98.1671C225.122 98.7484 225.19 99.3244 225.279 99.8951L222.358 100.248C222.46 100.879 222.583 101.514 222.731 102.135L225.616 101.607C225.752 102.176 225.916 102.737 226.095 103.293L223.248 103.993C223.445 104.606 223.667 105.219 223.912 105.818L226.692 104.946C226.916 105.492 227.162 106.028 227.426 106.556L224.714 107.598C225.003 108.179 225.32 108.76 225.654 109.323L228.281 108.123C228.587 108.637 228.906 109.144 229.25 109.636L226.727 110.988C227.105 111.53 227.508 112.068 227.928 112.588L230.345 111.088C230.728 111.561 231.124 112.024 231.542 112.473L229.249 114.108C229.708 114.599 230.189 115.084 230.685 115.547L232.846 113.77C233.299 114.193 233.766 114.602 234.249 114.997L232.229 116.897C232.758 117.329 233.312 117.752 233.875 118.153L235.741 116.137C236.251 116.502 236.782 116.849 237.321 117.184L235.619 119.311C236.212 119.678 236.827 120.031 237.446 120.36L238.976 118.145C239.541 118.445 240.119 118.724 240.71 118.992L239.345 121.298C239.989 121.591 240.652 121.867 241.318 122.12L242.494 119.741C243.098 119.972 243.718 120.184 244.337 120.379L243.352 122.822C244.035 123.034 244.735 123.228 245.434 123.398L246.226 120.898C246.86 121.054 247.499 121.198 248.149 121.314L247.553 123.849C248.261 123.976 248.982 124.084 249.705 124.169L250.104 121.602C250.754 121.679 251.41 121.737 252.073 121.776L251.877 124.359C252.584 124.4 253.306 124.422 254.02 124.422H254.057V121.839C254.723 121.839 255.383 121.812 256.036 121.772L256.24 124.355C256.962 124.311 257.693 124.246 258.41 124.155L258.008 121.589C258.665 121.51 259.317 121.415 259.959 121.298L260.56 123.829C261.274 123.699 261.982 123.547 262.682 123.375L261.882 120.875C262.52 120.718 263.15 120.545 263.769 120.351L264.763 122.792C265.444 122.579 266.126 122.342 266.789 122.092L265.606 119.714C266.213 119.481 266.806 119.231 267.39 118.964L268.756 121.264C269.397 120.971 270.036 120.654 270.655 120.323L269.115 118.11C269.678 117.81 270.226 117.483 270.764 117.149L272.47 119.279C273.06 118.912 273.644 118.522 274.204 118.12L272.333 116.109C272.843 115.742 273.338 115.359 273.821 114.964L275.846 116.864C276.374 116.43 276.894 115.975 277.388 115.511L275.221 113.738C275.67 113.314 276.107 112.879 276.524 112.43L278.821 114.068C279.278 113.575 279.721 113.062 280.139 112.542L277.718 111.042C278.099 110.569 278.468 110.088 278.813 109.593L281.337 110.939C281.714 110.396 282.074 109.833 282.408 109.27L279.778 108.07C280.084 107.557 280.37 107.036 280.633 106.502L283.347 107.537C283.636 106.953 283.905 106.352 284.149 105.753L281.363 104.887C281.583 104.344 281.781 103.787 281.959 103.23L284.807 103.93C285.001 103.318 285.173 102.692 285.317 102.069L282.43 101.548C282.564 100.983 282.669 100.411 282.757 99.8351L285.683 100.183C285.78 99.5551 285.853 98.9151 285.903 98.2831L282.957 98.1111C283.001 97.5421 283.032 96.9701 283.032 96.3911V96.3751L285.979 96.3751C285.979 95.7391 285.952 95.0961 285.904 94.4641L282.959 94.6401C282.912 94.0587 282.844 93.4827 282.755 92.9121L285.68 92.5601C285.578 91.9311 285.459 91.2961 285.312 90.6731L282.425 91.1981C282.289 90.6291 282.127 90.0681 281.95 89.5121L284.797 88.8121C284.6 88.1991 284.378 87.5861 284.136 86.9871L281.352 87.8561C281.13 87.3091 280.887 86.7721 280.623 86.2431L283.334 85.2071C283.045 84.6261 282.729 84.0451 282.396 83.4821L279.768 84.6821C279.462 84.1681 279.143 83.6611 278.801 83.1671L281.324 81.8181C280.947 81.2761 280.544 80.7381 280.127 80.2181L277.707 81.7181C277.325 81.2451 276.929 80.7821 276.513 80.3331L278.807 78.6941C278.35 78.2011 277.868 77.7161 277.374 77.2521L275.209 79.0271C274.758 78.6044 274.291 78.1954 273.809 77.8001L275.831 75.9001C275.303 75.4661 274.749 75.0441 274.187 74.6431L272.318 76.6561C271.808 76.2911 271.278 75.9431 270.738 75.6081L272.449 73.4841C271.857 73.1171 271.243 72.7641 270.624 72.4331L269.087 74.6351C268.525 74.3351 267.945 74.0531 267.359 73.7851L268.722 71.4791C268.077 71.1861 267.415 70.9081 266.75 70.6551L265.571 73.0341C264.966 72.8031 264.347 72.5881 263.727 72.3941L264.716 69.9521C264.032 69.7381 263.333 69.5441 262.635 69.3731L261.834 71.8711C261.201 71.7151 260.563 71.5711 259.912 71.4541L260.508 68.9221C259.8 68.7931 259.08 68.6841 258.357 68.5991L257.959 71.1651C257.309 71.0871 256.652 71.0287 255.989 70.9901L256.192 68.4061ZM278.041 96.3821C278.041 108.004 267.263 117.459 254.016 117.459C240.768 117.459 229.989 108.004 229.989 96.3821C229.989 84.7601 240.767 75.3051 254.016 75.3051C267.264 75.3051 278.041 84.7591 278.041 96.3821Z" fill="#D1E4FF" fill-opacity="0.32"/>
<path d="M291.254 547.051C288.797 547.057 286.343 547.231 283.91 547.572L283.382 544.672C280.785 545.036 278.218 545.579 275.7 546.299L276.744 549.099C274.418 549.769 272.145 550.604 269.943 551.599L268.404 548.969C266.075 550.017 263.829 551.232 261.683 552.605L263.67 554.993C261.697 556.253 259.826 557.66 258.072 559.2L255.687 557.114C253.842 558.738 252.129 560.502 250.566 562.389L253.295 564.127C251.86 565.86 250.573 567.705 249.446 569.644L246.442 568.304C245.253 570.354 244.244 572.499 243.426 574.717L246.622 575.617C245.864 577.661 245.29 579.766 244.906 581.908L241.597 581.461C241.199 583.719 240.998 586.006 240.999 588.297V588.364H244.341C244.346 590.526 244.544 592.684 244.932 594.813L241.624 595.275C242.04 597.57 242.658 599.825 243.473 602.015L246.669 601.1C247.441 603.165 248.391 605.161 249.511 607.067L246.512 608.415C247.726 610.489 249.111 612.462 250.653 614.315L253.377 612.572C254.841 614.331 256.444 615.974 258.171 617.487L255.789 619.575C257.673 621.223 259.683 622.727 261.8 624.075L263.784 621.675C265.791 622.953 267.892 624.083 270.07 625.056L268.54 627.69C270.907 628.746 273.349 629.631 275.848 630.339L276.882 627.539C279.233 628.208 281.63 628.71 284.055 629.043L283.535 631.944C286.127 632.298 288.74 632.475 291.357 632.475H291.408V629.543C293.868 629.54 296.324 629.369 298.759 629.029L299.283 631.929C301.88 631.568 304.447 631.027 306.966 630.309L305.926 627.509C308.253 626.843 310.527 626.011 312.729 625.019L314.26 627.65C316.591 626.605 318.839 625.392 320.987 624.02L319.001 621.631C320.975 620.373 322.848 618.969 324.605 617.431L326.989 619.513C328.837 617.891 330.552 616.128 332.118 614.242L329.391 612.503C330.828 610.771 332.117 608.927 333.247 606.989L336.248 608.331C337.44 606.283 338.452 604.139 339.272 601.922L336.076 601.013C336.837 598.97 337.414 596.865 337.8 594.723L341.107 595.175C341.513 592.903 341.718 590.601 341.719 588.294V588.275L338.379 588.287C338.377 586.12 338.181 583.958 337.795 581.825L341.102 581.368C340.689 579.072 340.073 576.817 339.26 574.626L336.066 575.537C335.296 573.472 334.347 571.474 333.23 569.567L336.231 568.222C335.02 566.148 333.637 564.175 332.097 562.322L329.373 564.062C327.912 562.302 326.312 560.656 324.588 559.142L326.964 557.057C325.082 555.41 323.075 553.905 320.959 552.557L318.975 554.947C316.969 553.668 314.87 552.536 312.693 551.562L314.223 548.929C311.857 547.871 309.416 546.983 306.918 546.273L305.874 549.075C303.524 548.402 301.128 547.896 298.705 547.56L299.224 544.66C296.616 544.303 293.986 544.124 291.352 544.124H291.25L291.254 547.051ZM332.746 588.297C332.746 608.318 314.181 624.606 291.357 624.606C268.534 624.606 249.969 608.318 249.969 588.297C249.969 568.276 268.54 551.988 291.357 551.988C314.175 551.988 332.746 568.275 332.746 588.297Z" fill="#D1E4FF" fill-opacity="0.32"/>
<path d="M331.373 416.06C331.373 412.403 327.994 409.438 323.825 409.438C319.656 409.438 316.276 412.403 316.276 416.06C316.276 419.717 319.656 422.682 323.825 422.682C327.994 422.682 331.373 419.717 331.373 416.06Z" fill="#D1E4FF" fill-opacity="0.32"/>
<path d="M312.606 416.06C312.606 421.486 317.638 425.901 323.827 425.901C330.015 425.901 335.047 421.486 335.047 416.06C335.047 410.634 330.015 406.218 323.827 406.218C317.638 406.218 312.606 410.634 312.606 416.06ZM334.041 416.06C334.041 421.001 329.457 425.023 323.827 425.023C318.196 425.023 313.608 421.001 313.608 416.06C313.608 411.119 318.19 407.101 323.827 407.101C329.463 407.101 334.041 411.118 334.041 416.06Z" fill="#D1E4FF" fill-opacity="0.32"/>
<path d="M306.768 416.061C306.768 424.31 314.418 431.023 323.823 431.023C333.228 431.023 340.881 424.31 340.881 416.061C340.881 407.812 333.23 401.097 323.823 401.097C314.416 401.097 306.768 407.81 306.768 416.061ZM338.544 416.061C338.544 423.182 331.94 428.975 323.823 428.975C315.707 428.975 309.103 423.181 309.103 416.061C309.103 408.941 315.707 403.147 323.823 403.147C331.94 403.147 338.544 408.94 338.544 416.061Z" fill="#D1E4FF" fill-opacity="0.32"/>
<path d="M323.768 394.061C322.457 394.064 321.147 394.157 319.848 394.339L319.566 392.791C318.18 392.984 316.811 393.274 315.468 393.659L316.026 395.159C314.785 395.515 313.572 395.96 312.398 396.49L311.582 395.09C310.339 395.649 309.141 396.298 307.996 397.03L309.057 398.303C308.005 398.976 307.007 399.727 306.07 400.547L304.796 399.424C303.812 400.292 302.898 401.234 302.064 402.242L303.519 403.168C302.754 404.092 302.068 405.076 301.467 406.11L299.865 405.396C299.232 406.49 298.694 407.634 298.258 408.817L299.962 409.3C299.557 410.39 299.249 411.512 299.044 412.655L297.284 412.414C297.071 413.618 296.964 414.839 296.963 416.061V416.097H298.746C298.75 417.25 298.856 418.401 299.062 419.537L297.297 419.781C297.519 421.007 297.849 422.211 298.284 423.381L299.988 422.893C300.4 423.994 300.907 425.059 301.504 426.076L299.905 426.796C300.552 427.901 301.291 428.951 302.114 429.937L303.566 429.008C304.347 429.946 305.202 430.822 306.122 431.629L304.856 432.743C305.86 433.622 306.932 434.424 308.06 435.143L309.116 433.865C310.187 434.546 311.308 435.147 312.469 435.665L311.653 437.07C312.917 437.634 314.22 438.106 315.554 438.484L316.105 436.984C317.358 437.341 318.636 437.608 319.929 437.784L319.654 439.341C321.036 439.529 322.429 439.624 323.823 439.624H323.852V438.06C325.162 438.058 326.471 437.966 327.769 437.785L328.048 439.333C329.437 439.141 330.809 438.853 332.155 438.469L331.6 436.969C332.841 436.613 334.053 436.17 335.229 435.642L336.045 437.042C337.287 436.484 338.487 435.837 339.632 435.106L338.573 433.832C339.625 433.163 340.624 432.416 341.56 431.598L342.83 432.71C343.815 431.844 344.729 430.905 345.566 429.9L344.11 428.972C344.877 428.048 345.565 427.064 346.168 426.03L347.768 426.747C348.404 425.653 348.943 424.508 349.381 423.324L347.676 422.84C348.082 421.75 348.389 420.628 348.594 419.485L350.358 419.727C350.574 418.515 350.682 417.287 350.682 416.057V416.045L348.901 416.05C348.9 414.894 348.796 413.741 348.589 412.603L350.353 412.359C350.133 411.133 349.804 409.929 349.37 408.759L347.667 409.246C347.256 408.144 346.749 407.079 346.154 406.061L347.755 405.344C347.109 404.237 346.371 403.185 345.549 402.196L344.096 403.125C343.318 402.186 342.465 401.308 341.546 400.501L342.814 399.389C341.81 398.51 340.74 397.708 339.612 396.989L338.553 398.264C337.483 397.582 336.364 396.978 335.203 396.458L336.019 395.058C334.757 394.494 333.454 394.021 332.121 393.642L331.57 395.136C330.316 394.778 329.038 394.508 327.745 394.329L328.023 392.781C326.632 392.59 325.229 392.495 323.824 392.495H323.77L323.768 394.061ZM345.903 416.061C345.899 426.739 335.997 435.424 323.823 435.424C311.65 435.424 301.748 426.739 301.748 416.061C301.748 405.383 311.652 396.694 323.823 396.694C335.995 396.694 345.899 405.381 345.899 416.061H345.903Z" fill="#D1E4FF" fill-opacity="0.32"/>
<path d="M273.087 349.573C273.087 357.186 280.147 363.38 288.824 363.38C297.502 363.38 304.562 357.186 304.562 349.573C304.562 341.96 297.503 335.773 288.824 335.773C280.146 335.773 273.087 341.961 273.087 349.573ZM303.28 349.573C303.28 356.568 296.794 362.258 288.82 362.258C280.846 362.258 274.366 356.567 274.366 349.573C274.366 342.579 280.852 336.889 288.824 336.889C296.797 336.889 303.28 342.58 303.28 349.573Z" fill="#D1E4FF" fill-opacity="0.32"/>
<path d="M278.84 349.573C278.84 354.412 283.31 358.334 288.826 358.334C294.341 358.334 298.811 354.412 298.811 349.573C298.811 344.734 294.341 340.813 288.826 340.813C283.31 340.813 278.84 344.734 278.84 349.573Z" fill="#D1E4FF" fill-opacity="0.32"/>
<path d="M264.461 349.573C264.461 361.359 275.39 370.948 288.825 370.948C302.26 370.948 313.19 361.359 313.19 349.573C313.19 337.787 302.261 328.198 288.825 328.198C275.389 328.198 264.461 337.788 264.461 349.573ZM308.716 349.573C308.716 359.196 299.792 367.024 288.825 367.024C277.857 367.024 268.934 359.196 268.934 349.573C268.934 339.95 277.857 332.123 288.825 332.123C299.792 332.123 308.716 339.948 308.716 349.573Z" fill="#D1E4FF" fill-opacity="0.32"/>
<path d="M251.969 349.573C251.969 367.402 268.502 381.907 288.826 381.907C309.149 381.907 325.681 367.402 325.681 349.573C325.681 331.744 309.148 317.24 288.826 317.24C268.503 317.24 251.969 331.745 251.969 349.573ZM323.125 349.573C323.125 366.166 307.738 379.664 288.826 379.664C269.913 379.664 254.525 366.166 254.525 349.573C254.525 332.98 269.912 319.483 288.825 319.483C307.737 319.483 323.125 332.981 323.125 349.573Z" fill="#D1E4FF" fill-opacity="0.32"/>
<path d="M288.728 309.113C285.511 309.117 282.3 309.419 279.14 310.013L277.622 303.783C273.995 304.462 270.442 305.481 267.014 306.827L269.989 312.65C267.078 313.793 264.289 315.216 261.663 316.897L257.369 311.741C254.391 313.646 251.62 315.845 249.099 318.303L254.511 322.571C252.381 324.648 250.486 326.944 248.857 329.418L242.551 326.231C240.703 329.038 239.185 332.04 238.025 335.181L244.943 337.139C243.952 339.81 243.283 342.586 242.95 345.409L235.738 344.763C235.362 348.011 235.368 351.291 235.755 354.538L242.969 353.87C243.313 356.692 243.993 359.466 244.994 362.133L238.08 364.112C239.252 367.249 240.781 370.247 242.638 373.048L248.932 369.842C250.57 372.312 252.473 374.602 254.608 376.674L249.213 380.95C251.743 383.403 254.522 385.596 257.508 387.494L261.783 382.326C264.415 384 267.21 385.416 270.126 386.553L267.173 392.383C270.607 393.718 274.164 394.727 277.795 395.394L279.287 389.164C282.431 389.746 285.624 390.038 288.824 390.038H288.876L288.884 396.394C292.605 396.392 296.317 396.049 299.972 395.371L298.463 389.141C301.593 388.555 304.659 387.674 307.617 386.511L310.585 392.337C313.958 391.016 317.191 389.373 320.235 387.43L315.95 382.27C318.527 380.627 320.925 378.73 323.108 376.608L328.514 380.876C330.982 378.475 333.18 375.821 335.07 372.96L328.769 369.766C330.371 367.347 331.688 364.758 332.696 362.049L339.603 364.015C340.746 360.92 341.519 357.706 341.907 354.436L334.693 353.782C335.03 350.971 335.028 348.131 334.687 345.32L341.901 344.659C341.509 341.39 340.733 338.177 339.586 335.084L332.677 337.055C331.666 334.347 330.346 331.759 328.742 329.342L335.042 326.142C333.148 323.283 330.948 320.631 328.477 318.233L323.07 322.505C320.884 320.386 318.482 318.491 315.904 316.85L320.188 311.687C317.14 309.747 313.905 308.105 310.529 306.787L307.571 312.616C304.611 311.456 301.544 310.578 298.413 309.994L299.914 303.763C296.264 303.089 292.558 302.75 288.844 302.75H288.697L288.728 309.113ZM333.03 349.572C333.03 370.957 313.2 388.354 288.825 388.354C264.45 388.354 244.619 370.957 244.619 349.572C244.619 328.187 264.449 310.794 288.824 310.794C313.199 310.794 333.03 328.194 333.03 349.572Z" fill="#D1E4FF" fill-opacity="0.32"/>
<path d="M298.177 47.382C298.177 53.784 304.113 58.993 311.411 58.993C318.708 58.993 324.645 53.784 324.645 47.382C324.645 40.98 318.708 35.773 311.411 35.773C304.113 35.773 298.177 40.981 298.177 47.382ZM323.571 47.382C323.571 53.264 318.116 58.049 311.411 58.049C304.706 58.049 299.252 53.264 299.252 47.382C299.252 41.5 304.705 36.716 311.411 36.716C318.117 36.716 323.571 41.501 323.571 47.382Z" fill="#D1E4FF" fill-opacity="0.32"/>
<path d="M303.014 47.382C303.014 51.449 306.773 54.749 311.411 54.749C316.049 54.749 319.808 51.449 319.808 47.382C319.808 43.315 316.049 40.016 311.411 40.016C306.773 40.016 303.014 43.314 303.014 47.382Z" fill="#D1E4FF" fill-opacity="0.32"/>
<path d="M290.922 47.382C290.922 57.293 300.113 65.357 311.411 65.357C322.709 65.357 331.899 57.293 331.899 47.382C331.899 37.471 322.709 29.408 311.411 29.408C300.113 29.408 290.922 37.472 290.922 47.382ZM328.137 47.382C328.137 55.474 320.634 62.057 311.409 62.057C302.183 62.057 294.68 55.474 294.68 47.382C294.68 39.29 302.183 32.708 311.409 32.708C320.634 32.708 328.137 39.291 328.137 47.382Z" fill="#D1E4FF" fill-opacity="0.32"/>
<path d="M280.417 47.381C280.417 62.372 294.321 74.572 311.411 74.572C328.501 74.572 342.404 62.372 342.404 47.381C342.404 32.39 328.501 20.192 311.411 20.192C294.321 20.192 280.417 32.39 280.417 47.381ZM340.254 47.381C340.254 61.335 327.314 72.681 311.411 72.681C295.507 72.681 282.567 61.335 282.567 47.381C282.567 33.427 295.506 22.081 311.41 22.081C327.313 22.081 340.254 33.429 340.254 47.381Z" fill="#D1E4FF" fill-opacity="0.32"/>
<path d="M311.329 13.355C308.622 13.3592 305.922 13.6134 303.264 14.114L301.988 8.87501C298.938 9.44607 295.95 10.3033 293.067 11.435L295.569 16.335C293.12 17.2967 290.774 18.4935 288.565 19.908L284.954 15.572C282.45 17.1739 280.12 19.0229 278 21.09L282.555 24.675C280.765 26.4219 279.171 28.3523 277.801 30.433L272.498 27.755C270.944 30.1152 269.667 32.6398 268.692 35.281L274.506 36.928C273.673 39.1741 273.111 41.5079 272.83 43.882L266.765 43.337C266.449 46.0679 266.454 48.8252 266.779 51.555L272.846 50.993C273.135 53.3665 273.706 55.6987 274.548 57.942L268.734 59.606C269.719 62.2444 271.005 64.7653 272.567 67.121L277.859 64.421C279.236 66.4976 280.836 68.4235 282.632 70.166L278.095 73.766C280.222 75.8278 282.56 77.6707 285.07 79.266L288.667 74.921C290.881 76.329 293.232 77.5194 295.685 78.475L293.203 83.375C296.089 84.4994 299.079 85.349 302.131 85.912L303.387 80.673C306.033 81.1624 308.721 81.4085 311.414 81.408H311.456L311.461 86.755C314.589 86.753 317.711 86.4647 320.785 85.894L319.515 80.655C322.147 80.1618 324.725 79.4211 327.212 78.443L329.708 83.343C332.545 82.2326 335.263 80.8506 337.823 79.217L334.219 74.878C336.385 73.4963 338.402 71.901 340.237 70.117L344.785 73.706C346.858 71.687 348.705 69.4555 350.293 67.05L344.994 64.364C346.34 62.3296 347.447 60.1525 348.295 57.874L354.109 59.526C355.07 56.9232 355.721 54.2198 356.047 51.47L349.981 50.92C350.264 48.556 350.262 46.1676 349.976 43.804L356.042 43.248C355.713 40.4992 355.06 37.7972 354.096 35.196L348.281 36.854C347.431 34.5773 346.322 32.4022 344.973 30.37L350.27 27.68C348.678 25.2757 346.828 23.0459 344.75 21.029L340.208 24.621C338.369 22.8391 336.35 21.2455 334.181 19.865L337.783 15.524C335.22 13.8924 332.499 12.5124 329.66 11.404L327.169 16.304C324.68 15.3299 322.101 14.5932 319.468 14.104L320.731 8.86401C317.661 8.2974 314.544 8.0125 311.421 8.01301H311.297L311.329 13.355ZM348.583 47.382C348.583 65.365 331.908 79.994 311.414 79.994C290.919 79.994 274.237 65.365 274.237 47.382C274.237 29.399 290.911 14.77 311.414 14.77C331.917 14.77 348.583 29.401 348.583 47.382Z" fill="#D1E4FF" fill-opacity="0.32"/>
<path d="M291.063 158.505C291.063 163.657 295.84 167.846 301.711 167.846C307.583 167.846 312.358 163.657 312.358 158.505C312.358 153.353 307.583 149.165 301.711 149.165C295.84 149.165 291.063 153.354 291.063 158.505ZM311.494 158.505C311.494 163.237 307.107 167.088 301.711 167.088C296.315 167.088 291.929 163.237 291.929 158.505C291.929 153.773 296.315 149.923 301.711 149.923C307.107 149.923 311.494 153.774 311.494 158.505Z" fill="#D1E4FF" fill-opacity="0.32"/>
<path d="M294.954 158.504C294.954 161.778 297.979 164.431 301.71 164.431C305.441 164.431 308.466 161.778 308.466 158.504C308.466 155.23 305.439 152.579 301.71 152.579C297.981 152.579 294.954 155.231 294.954 158.504Z" fill="#D1E4FF" fill-opacity="0.32"/>
<path d="M285.226 158.505C285.226 166.479 292.62 172.966 301.71 172.966C310.8 172.966 318.194 166.479 318.194 158.505C318.194 150.531 310.8 144.046 301.71 144.046C292.62 144.046 285.226 150.533 285.226 158.505ZM315.169 158.505C315.169 165.015 309.13 170.311 301.71 170.311C294.29 170.311 288.253 165.016 288.253 158.505C288.253 151.994 294.289 146.705 301.711 146.705C309.133 146.705 315.169 151.996 315.169 158.505Z" fill="#D1E4FF" fill-opacity="0.32"/>
<path d="M276.775 158.505C276.775 170.567 287.961 180.38 301.711 180.38C315.46 180.38 326.647 170.567 326.647 158.505C326.647 146.443 315.46 136.631 301.711 136.631C287.961 136.631 276.775 146.445 276.775 158.505ZM324.917 158.505C324.917 169.731 314.506 178.864 301.712 178.864C288.917 178.864 278.509 169.731 278.509 158.505C278.509 147.279 288.914 138.147 301.711 138.147C314.507 138.147 324.917 147.28 324.917 158.505Z" fill="#D1E4FF" fill-opacity="0.32"/>
<path d="M301.645 131.132C299.468 131.135 297.296 131.34 295.157 131.743L294.129 127.528C291.676 127.988 289.273 128.677 286.953 129.587L288.963 133.528C286.993 134.302 285.106 135.264 283.329 136.401L280.425 132.914C278.41 134.203 276.536 135.691 274.83 137.354L278.493 140.237C277.053 141.643 275.771 143.196 274.669 144.87L270.403 142.714C269.153 144.613 268.126 146.644 267.343 148.769L272.02 150.092C271.349 151.901 270.897 153.78 270.671 155.692L265.791 155.251C265.538 157.449 265.544 159.668 265.808 161.865L270.688 161.413C270.921 163.322 271.38 165.198 272.057 167.003L267.378 168.341C268.172 170.463 269.206 172.491 270.462 174.386L274.721 172.219C275.829 173.889 277.115 175.438 278.558 176.84L274.91 179.733C276.622 181.391 278.502 182.873 280.521 184.156L283.414 180.656C285.194 181.789 287.084 182.747 289.057 183.515L287.06 187.465C289.384 188.368 291.79 189.051 294.247 189.504L295.257 185.288C297.386 185.683 299.547 185.881 301.713 185.881H301.748L301.751 190.181C304.268 190.18 306.779 189.948 309.251 189.489L308.231 185.274C310.349 184.876 312.423 184.281 314.424 183.496L316.432 187.437C318.714 186.543 320.9 185.431 322.96 184.117L320.059 180.627C321.803 179.516 323.425 178.232 324.902 176.796L328.561 179.681C330.231 178.056 331.719 176.26 332.997 174.324L328.733 172.163C329.816 170.526 330.707 168.775 331.391 166.943L336.068 168.271C336.841 166.177 337.364 164.003 337.626 161.791L332.746 161.348C332.858 160.403 332.913 159.452 332.914 158.501C332.913 157.54 332.855 156.58 332.74 155.625L337.619 155.181C337.355 152.97 336.829 150.796 336.053 148.703L331.376 150.036C330.693 148.204 329.8 146.454 328.715 144.818L332.976 142.654C331.696 140.72 330.21 138.926 328.541 137.303L324.884 140.195C323.406 138.761 321.782 137.478 320.037 136.368L322.934 132.876C320.874 131.562 318.686 130.451 316.402 129.559L314.399 133.503C312.396 132.718 310.321 132.124 308.202 131.73L309.222 127.515C306.753 127.059 304.245 126.829 301.733 126.83H301.631L301.645 131.132ZM331.618 158.504C331.618 172.972 318.2 184.741 301.713 184.741C285.226 184.741 271.803 172.972 271.803 158.504C271.803 144.036 285.219 132.269 301.713 132.269C318.208 132.269 331.618 144.038 331.618 158.504Z" fill="#D1E4FF" fill-opacity="0.32"/>
<path d="M200.303 370.288C200.383 371.637 201.004 372.9 202.031 373.801C203.058 374.702 204.407 375.168 205.783 375.098C207.16 375.169 208.509 374.703 209.537 373.801C210.564 372.9 211.186 371.637 211.266 370.288C211.185 368.939 210.563 367.676 209.536 366.776C208.509 365.875 207.16 365.409 205.783 365.48C204.407 365.409 203.059 365.875 202.032 366.776C201.005 367.677 200.383 368.939 200.303 370.288Z" fill="#D1E4FF" fill-opacity="0.32"/>
<path d="M186.994 370.289C186.994 361.201 195.423 353.807 205.783 353.807C216.142 353.807 224.575 361.2 224.575 370.289C224.575 379.378 216.144 386.772 205.783 386.772C195.421 386.772 186.994 379.378 186.994 370.289ZM186.221 370.289C186.221 379.767 194.979 387.451 205.783 387.451C216.586 387.451 225.346 379.767 225.346 370.289C225.346 360.811 216.588 353.128 205.783 353.128C194.977 353.128 186.221 360.81 186.221 370.289Z" fill="#D1E4FF" fill-opacity="0.32"/>
<path d="M211.338 347.346C209.506 347.008 207.645 346.838 205.781 346.838H205.719L205.734 349.602C204.089 349.605 202.447 349.759 200.831 350.063L200.171 347.355C198.355 347.695 196.576 348.206 194.859 348.879L196.153 351.412C194.665 351.997 193.239 352.724 191.896 353.583L190.029 351.342C188.538 352.297 187.151 353.398 185.89 354.63L188.241 356.484C187.153 357.546 186.184 358.719 185.351 359.984L182.609 358.598C181.684 360.004 180.923 361.508 180.342 363.081L183.349 363.932C182.842 365.298 182.5 366.717 182.329 368.161L179.194 367.881C179.006 369.509 179.01 371.153 179.203 372.781L182.338 372.491C182.514 373.934 182.862 375.351 183.373 376.715L180.369 377.576C180.956 379.148 181.722 380.649 182.653 382.052L185.39 380.652C186.227 381.914 187.199 383.085 188.291 384.144L185.945 386.004C187.212 387.231 188.604 388.328 190.098 389.278L191.958 387.031C193.304 387.887 194.733 388.611 196.224 389.192L194.941 391.727C196.66 392.397 198.441 392.903 200.259 393.238L200.908 390.53C202.515 390.827 204.148 390.977 205.784 390.976H205.81L205.813 393.738C207.677 393.738 209.537 393.566 211.367 393.225L210.711 390.517C212.311 390.217 213.879 389.767 215.392 389.172L216.683 391.706C218.372 391.045 219.991 390.222 221.515 389.249L219.653 387.005C220.97 386.165 222.196 385.195 223.312 384.111L225.658 385.966C226.895 384.764 227.996 383.435 228.943 382.002L226.201 380.613C227.02 379.376 227.694 378.052 228.21 376.667L231.215 377.521C231.787 375.97 232.175 374.359 232.369 372.721L229.242 372.438C229.412 371.002 229.412 369.551 229.242 368.114L232.376 367.827C232.18 366.188 231.791 364.578 231.216 363.027L228.211 363.884C227.693 362.5 227.019 361.177 226.2 359.941L228.936 358.554C227.988 357.123 226.885 355.795 225.648 354.594L223.302 356.451C222.184 355.368 220.957 354.399 219.638 353.561L221.489 351.316C219.964 350.343 218.343 349.521 216.652 348.861L215.369 351.395C213.856 350.802 212.288 350.354 210.687 350.055L211.338 347.346ZM227.443 370.288C227.443 380.766 217.727 389.288 205.784 389.288C193.84 389.288 184.125 380.767 184.125 370.288C184.125 359.809 193.84 351.288 205.783 351.288C217.725 351.288 227.443 359.811 227.443 370.288Z" fill="#D1E4FF" fill-opacity="0.32"/>
<path d="M236.446 435.935C236.526 437.284 237.148 438.547 238.174 439.448C239.201 440.349 240.55 440.815 241.927 440.745C243.303 440.816 244.652 440.35 245.68 439.448C246.707 438.547 247.329 437.284 247.409 435.935C247.328 434.586 246.707 433.323 245.679 432.423C244.652 431.522 243.303 431.056 241.927 431.127C240.55 431.056 239.202 431.522 238.175 432.423C237.148 433.324 236.526 434.586 236.446 435.935Z" fill="#D1E4FF" fill-opacity="0.32"/>
<path d="M223.137 435.936C223.137 426.848 231.566 419.454 241.926 419.454C252.285 419.454 260.718 426.847 260.718 435.936C260.718 445.025 252.287 452.419 241.926 452.419C231.564 452.419 223.137 445.025 223.137 435.936ZM222.364 435.936C222.364 445.414 231.122 453.098 241.926 453.098C252.729 453.098 261.489 445.414 261.489 435.936C261.489 426.458 252.731 418.775 241.926 418.775C231.12 418.775 222.364 426.457 222.364 435.936Z" fill="#D1E4FF" fill-opacity="0.32"/>
<path d="M247.481 412.993C245.649 412.655 243.788 412.485 241.924 412.485H241.863L241.877 415.249C240.232 415.252 238.59 415.406 236.974 415.71L236.314 413.002C234.498 413.342 232.719 413.852 231.002 414.526L232.297 417.059C230.808 417.644 229.382 418.371 228.039 419.23L226.172 416.989C224.681 417.944 223.294 419.045 222.033 420.277L224.384 422.131C223.296 423.193 222.327 424.366 221.494 425.631L218.752 424.245C217.827 425.651 217.066 427.155 216.485 428.728L219.492 429.579C218.985 430.945 218.643 432.364 218.472 433.808L215.337 433.528C215.15 435.156 215.153 436.8 215.346 438.428L218.481 438.138C218.657 439.581 219.005 440.998 219.516 442.362L216.512 443.223C217.099 444.795 217.865 446.296 218.796 447.699L221.533 446.299C222.37 447.561 223.342 448.732 224.434 449.791L222.088 451.651C223.355 452.878 224.747 453.975 226.241 454.925L228.101 452.678C229.447 453.534 230.876 454.258 232.367 454.839L231.084 457.374C232.803 458.044 234.584 458.55 236.402 458.885L237.051 456.177C238.659 456.474 240.291 456.624 241.927 456.623H241.953L241.956 459.385C243.82 459.385 245.68 459.213 247.511 458.872L246.854 456.164C248.454 455.864 250.022 455.414 251.535 454.819L252.826 457.353C254.515 456.692 256.134 455.869 257.658 454.896L255.796 452.652C257.113 451.811 258.339 450.842 259.455 449.758L261.801 451.613C263.038 450.411 264.139 449.082 265.086 447.649L262.344 446.26C263.163 445.023 263.837 443.699 264.353 442.314L267.358 443.168C267.93 441.617 268.318 440.006 268.512 438.368L265.385 438.085C265.555 436.649 265.555 435.197 265.385 433.761L268.519 433.474C268.323 431.835 267.934 430.225 267.359 428.674L264.354 429.531C263.837 428.147 263.162 426.824 262.343 425.588L265.079 424.201C264.131 422.77 263.028 421.442 261.791 420.241L259.445 422.098C258.328 421.015 257.1 420.046 255.781 419.208L257.633 416.963C256.107 415.99 254.486 415.168 252.795 414.508L251.512 417.042C249.999 416.449 248.431 416.001 246.83 415.702L247.481 412.993ZM263.587 435.935C263.587 446.413 253.871 454.935 241.927 454.935C229.983 454.935 220.268 446.414 220.268 435.935C220.268 425.456 229.983 416.935 241.926 416.935C253.869 416.935 263.587 425.458 263.587 435.935Z" fill="#D1E4FF" fill-opacity="0.32"/>
<path d="M337.489 291.538C337.546 292.493 337.986 293.388 338.714 294.026C339.441 294.664 340.397 294.994 341.371 294.944C342.346 294.994 343.301 294.664 344.029 294.025C344.756 293.387 345.196 292.493 345.254 291.538C345.197 290.583 344.756 289.688 344.029 289.05C343.301 288.412 342.346 288.082 341.371 288.132C340.396 288.082 339.441 288.412 338.714 289.05C337.986 289.688 337.546 290.583 337.489 291.538Z" fill="#D1E4FF" fill-opacity="0.32"/>
<path d="M328.064 291.538C328.064 285.101 334.033 279.864 341.37 279.864C348.708 279.864 354.679 285.101 354.679 291.538C354.679 297.975 348.71 303.212 341.371 303.212C334.033 303.212 328.064 297.975 328.064 291.538ZM327.516 291.538C327.516 298.251 333.719 303.693 341.371 303.693C349.024 303.693 355.227 298.251 355.227 291.538C355.227 284.825 349.024 279.383 341.371 279.383C333.719 279.383 327.516 284.824 327.516 291.538Z" fill="#D1E4FF" fill-opacity="0.32"/>
<path d="M345.305 275.288C344.008 275.049 342.691 274.929 341.372 274.929H341.327L341.337 276.887C340.173 276.889 339.012 276.999 337.869 277.214L337.402 275.296C336.115 275.537 334.855 275.899 333.639 276.376L334.557 278.17C333.502 278.584 332.492 279.099 331.54 279.708L330.214 278.121C329.158 278.796 328.174 279.575 327.28 280.446L328.946 281.76C328.175 282.512 327.489 283.343 326.899 284.239L324.961 283.257C324.304 284.253 323.764 285.318 323.351 286.432L325.481 287.032C325.122 288.001 324.88 289.008 324.759 290.032L322.542 289.832C322.408 290.984 322.408 292.147 322.542 293.299L324.763 293.094C324.889 294.116 325.137 295.12 325.501 296.085L323.371 296.695C323.787 297.808 324.33 298.872 324.991 299.865L326.929 298.877C327.521 299.77 328.21 300.597 328.982 301.346L327.32 302.668C328.218 303.537 329.203 304.314 330.262 304.987L331.579 303.395C332.533 304.001 333.545 304.514 334.6 304.925L333.692 306.725C334.909 307.198 336.17 307.554 337.458 307.79L337.918 305.872C339.056 306.083 340.212 306.188 341.371 306.188H341.389L341.392 308.146C342.712 308.146 344.029 308.024 345.325 307.783L344.86 305.865C345.994 305.653 347.104 305.333 348.175 304.912L349.093 306.707C350.289 306.238 351.434 305.655 352.513 304.966L351.193 303.377C352.125 302.782 352.994 302.095 353.785 301.327L355.449 302.646C356.325 301.793 357.105 300.85 357.775 299.834L355.837 298.85C356.417 297.974 356.894 297.036 357.26 296.055L359.389 296.655C359.794 295.556 360.068 294.415 360.205 293.255L357.984 293.055C358.105 292.038 358.105 291.01 357.984 289.993L360.205 289.793C360.066 288.632 359.79 287.491 359.383 286.393L357.254 287C356.886 286.019 356.407 285.082 355.826 284.207L357.764 283.221C357.092 282.209 356.311 281.27 355.435 280.421L353.771 281.736C352.98 280.969 352.11 280.283 351.176 279.689L352.495 278.099C351.415 277.41 350.267 276.828 349.07 276.36L348.157 278.155C347.085 277.735 345.975 277.418 344.841 277.206L345.305 275.288ZM356.714 291.537C356.714 298.958 349.833 304.995 341.374 304.995C332.914 304.995 326.031 298.959 326.031 291.537C326.031 284.115 332.912 278.08 341.371 278.08C349.829 278.08 356.714 284.117 356.714 291.537Z" fill="#D1E4FF" fill-opacity="0.32"/>
<path d="M324.623 109.765C324.68 110.72 325.121 111.615 325.848 112.253C326.575 112.891 327.531 113.221 328.506 113.171C329.48 113.221 330.436 112.891 331.163 112.252C331.89 111.614 332.331 110.72 332.388 109.765C332.331 108.81 331.89 107.915 331.163 107.277C330.436 106.639 329.48 106.309 328.506 106.359C327.531 106.309 326.575 106.639 325.848 107.277C325.12 107.915 324.68 108.81 324.623 109.765Z" fill="#D1E4FF" fill-opacity="0.32"/>
<path d="M315.198 109.765C315.198 103.328 321.167 98.091 328.505 98.091C335.842 98.091 341.813 103.328 341.813 109.765C341.813 116.202 335.844 121.439 328.506 121.439C321.167 121.439 315.198 116.202 315.198 109.765ZM314.65 109.765C314.65 116.478 320.853 121.92 328.506 121.92C336.158 121.92 342.361 116.478 342.361 109.765C342.361 103.052 336.158 97.61 328.506 97.61C320.853 97.61 314.65 103.051 314.65 109.765Z" fill="#D1E4FF" fill-opacity="0.32"/>
<path d="M332.439 93.515C331.142 93.2761 329.825 93.1559 328.506 93.156H328.461L328.471 95.114C327.307 95.1165 326.146 95.226 325.003 95.441L324.536 93.523C323.249 93.7641 321.989 94.1258 320.773 94.603L321.691 96.397C320.636 96.8113 319.626 97.3264 318.675 97.935L317.349 96.348C316.292 97.0228 315.309 97.8019 314.414 98.673L316.081 99.987C315.31 100.739 314.623 101.57 314.033 102.466L312.095 101.484C311.439 102.48 310.899 103.545 310.486 104.659L312.616 105.259C312.256 106.228 312.014 107.235 311.893 108.259L309.677 108.059C309.542 109.211 309.542 110.374 309.677 111.526L311.897 111.321C312.024 112.343 312.271 113.347 312.635 114.312L310.505 114.922C310.921 116.035 311.465 117.099 312.125 118.092L314.063 117.104C314.656 117.997 315.344 118.824 316.116 119.573L314.455 120.895C315.352 121.764 316.338 122.541 317.396 123.214L318.713 121.622C319.667 122.228 320.679 122.741 321.735 123.152L320.826 124.952C322.043 125.425 323.305 125.781 324.592 126.017L325.052 124.099C326.19 124.31 327.346 124.415 328.505 124.415H328.523L328.526 126.373C329.846 126.373 331.163 126.251 332.46 126.01L331.994 124.092C333.128 123.88 334.238 123.56 335.31 123.139L336.228 124.934C337.423 124.465 338.568 123.882 339.647 123.193L338.327 121.604C339.26 121.009 340.128 120.322 340.919 119.554L342.584 120.873C343.459 120.02 344.239 119.077 344.909 118.061L342.971 117.077C343.551 116.201 344.029 115.263 344.394 114.282L346.523 114.882C346.928 113.783 347.202 112.642 347.339 111.482L345.118 111.282C345.239 110.265 345.239 109.237 345.118 108.22L347.339 108.02C347.2 106.859 346.924 105.718 346.517 104.62L344.388 105.227C344.021 104.246 343.541 103.31 342.96 102.434L344.898 101.448C344.226 100.436 343.445 99.4971 342.569 98.648L340.906 99.963C340.114 99.1957 339.245 98.5098 338.311 97.916L339.629 96.326C338.549 95.6372 337.402 95.0547 336.204 94.587L335.291 96.382C334.219 95.9624 333.109 95.6446 331.975 95.433L332.439 93.515ZM343.848 109.764C343.848 117.185 336.967 123.222 328.508 123.222C320.049 123.222 313.165 117.186 313.165 109.764C313.165 102.342 320.047 96.307 328.505 96.307C336.963 96.307 343.848 102.344 343.848 109.764Z" fill="#D1E4FF" fill-opacity="0.32"/>
<path d="M197.897 188.516C197.897 196.858 205.633 203.645 215.141 203.645C224.649 203.645 232.385 196.858 232.385 188.516C232.385 180.174 224.65 173.388 215.141 173.388C205.632 173.388 197.897 180.175 197.897 188.516ZM227.64 188.516C227.64 194.561 222.029 199.48 215.142 199.48C208.255 199.48 202.644 194.561 202.644 188.516C202.644 182.471 208.255 177.553 215.141 177.553C222.027 177.553 227.64 182.471 227.64 188.516Z" fill="#D1E4FF" fill-opacity="0.32"/>
<path d="M190.775 188.515C190.775 200.302 201.706 209.891 215.141 209.891C228.576 209.891 239.507 200.302 239.507 188.515C239.507 176.728 228.576 167.14 215.141 167.14C201.706 167.14 190.775 176.729 190.775 188.515ZM238.39 188.515C238.39 199.763 227.96 208.911 215.141 208.911C202.322 208.911 191.892 199.763 191.892 188.511C191.892 177.259 202.322 168.111 215.141 168.111C227.96 168.111 238.39 177.27 238.39 188.515Z" fill="#D1E4FF" fill-opacity="0.32"/>
<path d="M223.742 148.291C220.895 147.828 218.013 147.596 215.126 147.597H215.024L215.041 151.197C210.259 151.2 205.506 151.922 200.946 153.336L199.572 149.936C196.869 150.775 194.245 151.84 191.728 153.121L193.803 156.252C189.72 158.325 186.011 161.039 182.823 164.288L179.685 161.932C177.826 163.837 176.156 165.91 174.697 168.124L178.275 169.928C175.897 173.519 174.218 177.51 173.321 181.699L169.275 181.044C168.758 183.502 168.498 186.006 168.499 188.516V188.583H172.599C172.61 192.818 173.436 197.013 175.034 200.948L171.151 202.152C172.124 204.559 173.339 206.865 174.778 209.036L178.348 207.219C180.819 210.918 183.914 214.177 187.502 216.856L184.819 219.606C187.032 221.267 189.391 222.732 191.868 223.985L193.929 220.849C198.143 222.976 202.67 224.444 207.346 225.2L206.596 228.75C209.421 229.207 212.279 229.436 215.141 229.436H215.192V225.836C219.976 225.837 224.732 225.12 229.293 223.708L230.659 227.117C233.364 226.28 235.99 225.215 238.508 223.936L236.434 220.806C240.519 218.736 244.231 216.026 247.424 212.781L250.565 215.136C252.427 213.234 254.101 211.163 255.563 208.95L251.993 207.14C254.374 203.552 256.059 199.562 256.96 195.373L260.999 196.036C261.522 193.562 261.786 191.042 261.786 188.515V188.493L257.686 188.505C257.681 184.266 256.86 180.066 255.266 176.125L259.149 174.925C258.18 172.517 256.969 170.209 255.533 168.036L251.963 169.85C249.497 166.149 246.406 162.887 242.821 160.204L245.512 157.454C243.3 155.791 240.942 154.324 238.466 153.069L236.397 156.206C232.187 154.073 227.662 152.598 222.987 151.836L223.742 148.291ZM251.542 188.516C251.542 206.124 235.21 220.449 215.141 220.449C195.073 220.449 178.741 206.124 178.741 188.516C178.741 170.908 195.071 156.584 215.141 156.584C235.212 156.584 251.542 170.909 251.542 188.516Z" fill="#D1E4FF" fill-opacity="0.32"/>
<path d="M333.029 473.596C333.029 468.495 328.315 464.359 322.5 464.359C316.685 464.359 311.971 468.495 311.971 473.596C311.971 478.698 316.685 482.833 322.5 482.833C328.315 482.833 333.029 478.698 333.029 473.596Z" fill="#D1E4FF" fill-opacity="0.32"/>
<path d="M326.231 442.802C325.001 442.688 323.745 442.631 322.483 442.631H322.432V447.174C320.181 447.179 317.935 447.407 315.73 447.854L314.57 443.417C313.356 443.661 312.146 443.966 310.968 444.323L312.665 448.623C310.552 449.264 308.513 450.121 306.582 451.18L303.827 447.315C302.776 447.891 301.754 448.519 300.767 449.196L303.967 452.788C302.21 453.991 300.593 455.38 299.146 456.93L295.119 454.052C294.336 454.896 293.599 455.781 292.913 456.703L297.264 459.193C296.04 460.83 295.02 462.604 294.226 464.479L289.362 462.908C288.932 463.933 288.563 464.981 288.257 466.048L293.287 467.154C292.74 469.066 292.44 471.038 292.394 473.023L287.209 472.923C287.181 474.017 287.22 475.112 287.323 476.201L292.492 475.822C292.679 477.804 293.12 479.754 293.803 481.628L288.863 483.008C289.245 484.056 289.687 485.082 290.189 486.08L294.94 484.242C295.863 486.071 297.003 487.787 298.336 489.354L294.173 492.074C294.922 492.957 295.719 493.8 296.56 494.599L300.377 491.508C301.928 492.978 303.638 494.277 305.477 495.383L302.538 499.139C303.572 499.762 304.638 500.334 305.731 500.852L308.198 496.852C310.201 497.799 312.299 498.54 314.457 499.062L313.076 503.446C314.274 503.736 315.503 503.974 316.732 504.146L317.575 499.658C319.205 499.896 320.852 500.015 322.5 500.016C323.113 500.016 323.715 499.995 324.316 499.964L324.624 504.508C325.868 504.444 327.116 504.319 328.339 504.141L327.488 499.653C329.7 499.33 331.873 498.785 333.971 498.025L335.95 502.234C337.099 501.818 338.237 501.343 339.329 500.822L336.853 496.822C338.812 495.885 340.664 494.746 342.375 493.422L345.811 496.85C346.742 496.131 347.634 495.365 348.484 494.555L344.661 491.471C346.171 490.033 347.507 488.43 348.644 486.693L353.154 488.956C353.772 488.011 354.334 487.032 354.838 486.024L350.084 484.195C350.985 482.398 351.657 480.499 352.083 478.541L357.183 479.388C357.415 478.314 357.582 477.227 357.684 476.134L352.513 475.766C352.581 475.05 352.625 474.328 352.625 473.597C352.624 472.341 352.522 471.087 352.319 469.847L357.451 469.208C357.275 468.12 357.034 467.044 356.727 465.984L351.701 467.099C351.139 465.166 350.335 463.308 349.308 461.567L353.933 459.487C353.36 458.508 352.732 457.56 352.05 456.65L347.705 459.15C346.449 457.477 345.005 455.948 343.398 454.594L347.003 451.308C346.1 450.544 345.158 449.827 344.18 449.158L340.984 452.758C339.185 451.528 337.258 450.489 335.235 449.658L337.434 445.533C336.307 445.071 335.138 444.656 333.961 444.302L332.276 448.608C330.13 447.96 327.922 447.528 325.687 447.32L326.231 442.802ZM348.271 473.597C348.271 486.063 336.71 496.208 322.499 496.208C308.289 496.208 296.727 486.063 296.727 473.597C296.727 461.131 308.289 450.989 322.499 450.989C336.71 450.989 348.271 461.13 348.271 473.597Z" fill="#D1E4FF" fill-opacity="0.32"/>
<path d="M321.013 237.726C321.013 231.586 315.339 226.609 308.341 226.609C301.342 226.609 295.668 231.586 295.668 237.726C295.668 243.866 301.342 248.843 308.341 248.843C315.339 248.843 321.013 243.866 321.013 237.726Z" fill="#D1E4FF" fill-opacity="0.32"/>
<path d="M312.832 200.66C311.35 200.523 309.839 200.455 308.321 200.455H308.26V205.923C305.55 205.929 302.847 206.203 300.193 206.741L298.796 201.401C297.336 201.695 295.878 202.062 294.462 202.49L296.502 207.672C293.958 208.442 291.503 209.472 289.178 210.745L285.865 206.093C284.597 206.786 283.366 207.542 282.176 208.357L286.032 212.681C283.919 214.128 281.976 215.8 280.238 217.666L275.391 214.203C274.448 215.218 273.563 216.282 272.739 217.392L277.978 220.392C276.503 222.362 275.275 224.498 274.32 226.755L268.463 224.865C267.946 226.098 267.503 227.36 267.137 228.644L273.189 229.974C272.529 232.273 272.166 234.643 272.106 237.03L265.866 236.915C265.834 238.232 265.88 239.549 266.004 240.86L272.227 240.404C272.454 242.789 272.984 245.136 273.805 247.392L267.858 249.054C268.317 250.316 268.849 251.552 269.453 252.754L275.171 250.54C276.281 252.742 277.652 254.807 279.257 256.693L274.245 259.966C275.149 261.028 276.109 262.042 277.122 263.004L281.712 259.282C283.579 261.052 285.637 262.616 287.851 263.948L284.318 268.469C285.563 269.218 286.844 269.906 288.159 270.53L291.13 265.712C293.54 266.852 296.065 267.743 298.663 268.37L296.999 273.653C298.44 274.002 299.925 274.288 301.399 274.502L302.413 269.102C304.376 269.387 306.357 269.53 308.342 269.53C309.076 269.53 309.803 269.505 310.526 269.467L310.898 274.93C312.393 274.852 313.899 274.704 315.371 274.488L314.345 269.088C317.008 268.7 319.623 268.044 322.149 267.13L324.533 272.193C325.915 271.693 327.287 271.12 328.599 270.493L325.618 265.681C327.977 264.555 330.205 263.183 332.266 261.591L336.399 265.713C337.52 264.847 338.594 263.925 339.616 262.95L335.015 259.238C336.833 257.508 338.441 255.578 339.809 253.487L345.237 256.213C345.981 255.074 346.658 253.895 347.265 252.681L341.542 250.481C342.628 248.321 343.436 246.037 343.948 243.681L350.083 244.7C350.362 243.408 350.563 242.101 350.684 240.785L344.462 240.342C344.543 239.48 344.594 238.611 344.594 237.731C344.592 236.219 344.468 234.709 344.223 233.216L350.401 232.447C350.189 231.138 349.898 229.843 349.531 228.568L343.481 229.905C342.802 227.578 341.835 225.341 340.602 223.245L346.165 220.745C345.476 219.567 344.721 218.426 343.904 217.33L338.673 220.336C337.16 218.321 335.42 216.481 333.485 214.85L337.828 210.9C336.741 209.981 335.607 209.118 334.429 208.313L330.583 212.642C328.417 211.163 326.097 209.913 323.663 208.913L326.315 203.947C324.958 203.39 323.552 202.892 322.133 202.465L320.108 207.65C317.526 206.87 314.87 206.351 312.18 206.101L312.832 200.66ZM339.359 237.73C339.359 252.73 325.445 264.941 308.342 264.941C291.238 264.941 277.322 252.73 277.322 237.73C277.322 222.73 291.237 210.518 308.342 210.518C325.446 210.518 339.359 222.722 339.359 237.73Z" fill="#D1E4FF" fill-opacity="0.32"/>
<path d="M241.785 395.865C239.565 395.867 237.347 396.012 235.146 396.299L233.996 389.479C232.991 389.606 231.985 389.773 230.995 389.941L232.575 396.689C230.413 397.088 228.281 397.626 226.192 398.299L223.495 391.816C222.537 392.124 221.595 392.46 220.67 392.811L223.781 399.139C221.759 399.91 219.792 400.812 217.891 401.839L213.758 395.972C212.897 396.434 212.034 396.924 211.208 397.443L215.723 403.116C213.915 404.21 212.197 405.441 210.584 406.796L205.178 401.755C204.443 402.355 203.71 403.002 203.007 403.646L208.735 408.409C207.208 409.798 205.799 411.306 204.521 412.918L198.073 408.928C197.499 409.656 196.925 410.411 196.382 411.168L203.083 414.823C201.912 416.456 200.877 418.179 199.988 419.975L192.758 417.217C192.36 418.043 191.977 418.884 191.624 419.71L199.014 422.105C198.245 423.92 197.625 425.793 197.163 427.705L189.471 426.29C189.267 427.159 189.072 428.055 188.928 428.936L196.699 429.957C196.375 431.878 196.205 433.821 196.189 435.768L188.334 435.739V435.963C188.334 436.776 188.352 437.601 188.399 438.414L196.253 438.05C196.366 440.002 196.644 441.942 197.082 443.85L189.355 445.19C189.559 446.073 189.787 446.94 190.041 447.809L197.654 446.073C198.222 447.963 198.939 449.808 199.796 451.59L192.565 454.277C192.948 455.103 193.381 455.916 193.826 456.714L200.896 453.661C201.881 455.418 203.001 457.099 204.247 458.688L197.768 462.608C198.342 463.336 198.949 464.064 199.571 464.764L205.794 460.521C207.166 462.074 208.654 463.524 210.246 464.861L204.787 469.846C205.501 470.462 206.272 471.064 207.037 471.638L212.176 466.386C213.865 467.676 215.653 468.837 217.523 469.859L213.313 475.696C214.174 476.172 215.048 476.635 215.946 477.068L219.761 471.02C221.707 471.982 223.724 472.801 225.794 473.469L223.016 479.942C223.974 480.25 224.947 480.542 225.92 480.809L228.266 474.229C230.389 474.81 232.548 475.254 234.729 475.559L233.505 482.359C234.511 482.499 235.533 482.611 236.537 482.709L237.32 475.835C238.819 475.975 240.337 476.044 241.884 476.044C242.586 476.044 243.272 476.03 243.959 475.988L244.308 482.896C245.328 482.854 246.348 482.784 247.356 482.696L246.557 475.835C248.763 475.636 250.954 475.299 253.117 474.827L255.032 481.51C256.021 481.299 257.011 481.048 257.969 480.782L255.607 474.196C257.712 473.62 259.774 472.902 261.778 472.045L265.215 478.262C266.126 477.869 267.034 477.449 267.929 477.029L264.082 470.981C266.013 470.058 267.869 468.991 269.632 467.789L274.44 473.277C275.237 472.731 276.035 472.171 276.801 471.583L271.662 466.347C273.336 465.094 274.91 463.718 276.371 462.231L282.324 466.767C282.978 466.095 283.633 465.395 284.255 464.694L278.014 460.466C279.372 458.94 280.61 457.316 281.717 455.607L288.565 458.996C289.059 458.226 289.538 457.428 289.983 456.629L282.913 453.596C283.9 451.861 284.739 450.049 285.42 448.178L292.905 450.278C293.211 449.438 293.495 448.569 293.75 447.702L286.157 445.989C286.707 444.11 287.097 442.19 287.322 440.248L295.143 440.976C295.254 440.095 295.334 439.199 295.382 438.302L287.527 437.965C287.574 437.307 287.591 436.635 287.591 435.965C287.598 434.687 287.523 433.411 287.367 432.142L295.204 431.485C295.107 430.602 294.98 429.706 294.821 428.824L287.068 429.875C286.731 427.937 286.229 426.031 285.568 424.175L293.101 422.159C292.795 421.304 292.463 420.45 292.11 419.624L284.729 422.018C283.948 420.184 283.028 418.41 281.975 416.712L288.868 413.396C288.389 412.626 287.862 411.842 287.337 411.096L280.649 414.751C279.474 413.085 278.161 411.517 276.723 410.062L282.741 405.581C282.086 404.896 281.4 404.237 280.701 403.593L274.989 408.353C273.456 406.924 271.812 405.613 270.072 404.433L274.937 398.987C274.138 398.44 273.324 397.906 272.495 397.387L267.979 403.071C266.156 401.935 264.246 400.938 262.267 400.09L265.795 393.901C264.884 393.495 263.944 393.117 263.017 392.767L259.906 399.11C257.857 398.336 255.756 397.701 253.618 397.21L255.628 390.545C254.655 390.307 253.65 390.111 252.66 389.929L251.089 396.676C248.905 396.293 246.698 396.045 244.482 395.934L244.93 389.045C243.924 389.004 242.902 388.975 241.914 388.975H241.753L241.785 395.865ZM280.983 435.965C280.983 454.88 263.438 470.265 241.881 470.265C220.324 470.265 202.779 454.877 202.779 435.965C202.779 417.053 220.324 401.665 241.881 401.665C263.438 401.665 280.983 417.049 280.983 435.965Z" fill="#D1E4FF" fill-opacity="0.32"/>
<path d="M213.652 552.26C212.088 552.039 210.509 551.927 208.929 551.927H208.857L208.875 555.698C207.147 555.7 205.423 555.861 203.726 556.178L202.834 552.485C201.29 552.772 199.769 553.17 198.285 553.677L199.851 557.199C198.254 557.746 196.714 558.444 195.254 559.282L192.89 556.117C191.577 556.871 190.325 557.725 189.147 558.67L192.057 561.459C190.796 562.473 189.646 563.613 188.624 564.859L185.122 562.651C184.204 563.77 183.385 564.963 182.674 566.217L186.533 567.894C185.767 569.239 185.159 570.666 184.72 572.145L180.554 571.205C180.161 572.546 179.892 573.918 179.749 575.306L184.033 575.644C183.87 577.155 183.893 578.679 184.101 580.185L179.827 580.621C180.011 582.007 180.321 583.373 180.755 584.704L184.897 583.665C185.38 585.135 186.031 586.547 186.835 587.874L183.022 589.644C183.771 590.881 184.624 592.054 185.572 593.15L189.008 590.865C190.068 592.085 191.254 593.195 192.546 594.178L189.716 597.035C190.922 597.952 192.198 598.777 193.534 599.502L195.802 596.286C197.284 597.092 198.843 597.754 200.456 598.265L198.997 601.818C200.496 602.291 202.029 602.654 203.582 602.905L204.364 599.19C205.872 599.437 207.398 599.562 208.928 599.564C209.132 599.564 209.325 599.554 209.523 599.55L209.625 603.326C211.205 603.293 212.781 603.149 214.34 602.895L213.547 599.181C215.24 598.905 216.902 598.472 218.511 597.887L220.159 601.376C221.612 600.847 223.022 600.212 224.377 599.476L222.1 596.263C223.554 595.471 224.924 594.539 226.189 593.48L229.168 596.214C230.303 595.264 231.357 594.225 232.32 593.108L228.881 590.828C229.914 589.632 230.812 588.329 231.557 586.942L235.457 588.55C236.128 587.301 236.684 585.996 237.12 584.65L232.975 583.62C233.446 582.168 233.744 580.667 233.863 579.148L238.158 579.405C238.203 578.819 238.226 578.223 238.226 577.632C238.226 576.837 238.185 576.042 238.102 575.251L233.818 575.597C233.659 574.079 233.322 572.585 232.813 571.143L236.924 570.026C236.45 568.69 235.858 567.397 235.155 566.162L231.299 567.852C230.514 566.483 229.581 565.2 228.517 564.026L231.898 561.674C230.905 560.577 229.823 559.561 228.663 558.635L225.76 561.426C224.466 560.393 223.071 559.489 221.595 558.726L223.785 555.468C222.409 554.758 220.981 554.151 219.513 553.652L217.954 557.177C216.333 556.624 214.662 556.224 212.963 555.982L213.652 552.26ZM187.538 577.626C187.538 567.279 197.134 558.861 208.928 558.861C220.721 558.861 230.32 567.282 230.32 577.626C230.32 587.97 220.724 596.396 208.929 596.396C197.133 596.396 187.538 587.978 187.538 577.626Z" fill="#D1E4FF" fill-opacity="0.32"/>
<path d="M205.731 510.2C205.731 499.667 195.963 491.1 183.956 491.1C171.949 491.1 162.184 499.666 162.184 510.2C162.184 520.734 171.951 529.3 183.956 529.3C195.96 529.3 205.731 520.73 205.731 510.2ZM163.408 510.2C163.408 500.261 172.626 492.175 183.953 492.175C195.281 492.175 204.503 500.259 204.503 510.2C204.503 520.141 195.285 528.223 183.956 528.223C172.626 528.223 163.408 520.138 163.408 510.2Z" fill="#D1E4FF" fill-opacity="0.32"/>
<path d="M202.54 510.202C202.54 501.212 194.203 493.902 183.954 493.902C173.706 493.902 165.372 501.209 165.372 510.202C165.372 519.195 173.709 526.502 183.954 526.502C194.2 526.502 202.54 519.188 202.54 510.202ZM166.596 510.202C166.596 501.802 174.382 494.974 183.952 494.974C193.522 494.974 201.313 501.802 201.313 510.202C201.313 518.602 193.525 525.425 183.954 525.425C174.383 525.425 166.596 518.595 166.596 510.202Z" fill="#D1E4FF" fill-opacity="0.32"/>
<path d="M196.161 510.198C196.161 504.298 190.686 499.491 183.955 499.491C177.225 499.491 171.75 504.294 171.75 510.198C171.75 516.102 177.226 520.905 183.955 520.905C190.685 520.905 196.161 516.105 196.161 510.198ZM172.978 510.198C172.978 504.888 177.901 500.567 183.954 500.567C190.007 500.567 194.933 504.888 194.933 510.198C194.933 515.508 190.009 519.83 183.955 519.83C177.901 519.83 172.975 515.505 172.975 510.198H172.978Z" fill="#D1E4FF" fill-opacity="0.32"/>
<path d="M191.867 510.199C191.867 506.366 188.325 503.259 183.954 503.259C179.584 503.259 176.044 506.366 176.044 510.199C176.044 514.032 179.587 517.139 183.954 517.139C188.322 517.139 191.867 514.032 191.867 510.199Z" fill="#D1E4FF" fill-opacity="0.32"/>
<path d="M191.017 472.271C188.678 471.939 186.318 471.772 183.954 471.771H183.847L183.874 477.408C181.291 477.412 178.713 477.652 176.176 478.125L174.843 472.612C172.535 473.041 170.263 473.636 168.045 474.395L170.391 479.66C168.003 480.477 165.701 481.52 163.519 482.773L159.984 478.043C158.021 479.17 156.15 480.446 154.389 481.858L158.736 486.022C156.85 487.537 155.129 489.239 153.601 491.101L148.363 487.801C146.992 489.474 145.768 491.257 144.704 493.132L150.475 495.644C149.329 497.655 148.419 499.788 147.763 502L141.541 500.593C140.952 502.597 140.547 504.65 140.333 506.725L146.74 507.225C146.496 509.484 146.53 511.763 146.842 514.014L140.45 514.669C140.726 516.739 141.19 518.78 141.837 520.769L148.03 519.217C148.75 521.415 149.72 523.527 150.922 525.512L145.229 528.159C146.348 530.008 147.624 531.762 149.043 533.401L154.178 529.984C155.764 531.808 157.537 533.468 159.469 534.936L155.233 539.212C157.037 540.584 158.947 541.818 160.945 542.901L164.336 538.093C166.553 539.297 168.884 540.288 171.297 541.051L169.113 546.358C171.352 547.065 173.642 547.608 175.963 547.984L177.131 542.43C179.387 542.799 181.669 542.985 183.955 542.987C184.255 542.987 184.55 542.973 184.846 542.968L184.997 548.612C187.361 548.564 189.718 548.349 192.05 547.968L190.867 542.418C193.392 542.004 195.872 541.356 198.272 540.482L200.745 545.698C202.917 544.907 205.024 543.956 207.049 542.853L203.646 538.053C205.819 536.869 207.866 535.475 209.756 533.891L214.213 537.982C215.91 536.562 217.486 535.009 218.927 533.339L213.785 529.932C215.33 528.144 216.671 526.195 217.785 524.122L223.616 526.522C224.618 524.653 225.45 522.701 226.102 520.688L219.905 519.149C220.609 516.978 221.054 514.735 221.231 512.464L227.657 512.848C227.725 511.971 227.759 511.08 227.759 510.196C227.759 509.007 227.697 507.82 227.574 506.637L221.17 507.154C220.932 504.885 220.428 502.651 219.666 500.496L225.81 498.829C225.104 496.831 224.22 494.898 223.168 493.052L217.402 495.578C216.231 493.53 214.836 491.611 213.244 489.857L218.299 486.34C216.815 484.701 215.198 483.181 213.464 481.796L209.124 485.972C207.191 484.43 205.107 483.08 202.902 481.942L206.174 477.071C204.118 476.01 201.983 475.102 199.788 474.356L197.461 479.627C195.036 478.801 192.537 478.203 189.997 477.84L191.017 472.271ZM151.978 510.199C151.978 494.729 166.323 482.145 183.955 482.145C201.588 482.145 215.935 494.729 215.935 510.199C215.935 525.669 201.589 538.253 183.955 538.253C166.322 538.253 151.978 525.667 151.978 510.199Z" fill="#D1E4FF" fill-opacity="0.32"/>
<path d="M215.18 275.159C215.18 286.412 225.616 295.566 238.437 295.566C251.258 295.566 261.705 286.412 261.705 275.159C261.705 263.906 251.271 254.751 238.437 254.751C225.604 254.751 215.18 263.906 215.18 275.159ZM257.756 275.159C257.756 284.5 249.092 292.101 238.442 292.101C227.793 292.101 219.13 284.501 219.13 275.159C219.13 265.817 227.793 258.216 238.437 258.216C249.082 258.216 257.756 265.817 257.756 275.159Z" fill="#D1E4FF" fill-opacity="0.32"/>
<path d="M221.722 275.16C221.722 283.248 229.222 289.828 238.443 289.828C247.665 289.828 255.165 283.248 255.165 275.16C255.165 267.072 247.663 260.491 238.443 260.491C229.224 260.491 221.722 267.071 221.722 275.16ZM253.93 275.16C253.93 282.651 246.983 288.746 238.443 288.746C229.903 288.746 222.955 282.651 222.955 275.16C222.955 267.669 229.902 261.573 238.443 261.573C246.984 261.573 253.93 267.667 253.93 275.16Z" fill="#D1E4FF" fill-opacity="0.32"/>
<path d="M208.146 275.159C208.146 289.815 221.737 301.737 238.441 301.737C255.146 301.737 268.737 289.815 268.737 275.159C268.737 260.503 255.148 248.58 238.441 248.58C221.735 248.58 208.146 260.504 208.146 275.159ZM267.506 275.159C267.506 289.217 254.468 300.659 238.442 300.659C222.416 300.659 209.379 289.217 209.379 275.159C209.379 261.101 222.416 249.659 238.441 249.659C254.466 249.659 267.506 261.1 267.506 275.159Z" fill="#D1E4FF" fill-opacity="0.32"/>
<path d="M230.484 275.16C230.484 279.015 234.046 282.142 238.44 282.142C242.835 282.142 246.397 279.015 246.397 275.16C246.397 271.305 242.833 268.176 238.44 268.176C234.048 268.176 230.484 271.302 230.484 275.16Z" fill="#D1E4FF" fill-opacity="0.32"/>
<path d="M245.33 238.179C243.049 237.856 240.748 237.693 238.443 237.693H238.341L238.352 239.793C235.568 239.798 232.79 240.058 230.054 240.568L229.559 238.509C227.308 238.926 225.092 239.506 222.928 240.245L223.805 242.215C221.228 243.097 218.745 244.222 216.39 245.574L215.064 243.802C213.15 244.902 211.325 246.146 209.607 247.522L211.24 249.082C209.206 250.715 207.35 252.55 205.701 254.557L203.737 253.32C202.399 254.951 201.204 256.691 200.167 258.52L202.335 259.459C201.095 261.628 200.111 263.928 199.401 266.314L197.083 265.79C196.509 267.745 196.115 269.747 195.908 271.772L198.298 271.959C198.19 273.014 198.125 274.08 198.125 275.159C198.128 276.537 198.223 277.912 198.407 279.278L196.022 279.521C196.291 281.54 196.744 283.531 197.375 285.47L199.69 284.89C200.467 287.262 201.514 289.54 202.811 291.682L200.68 292.671C201.771 294.474 203.015 296.183 204.398 297.782L206.32 296.503C208.029 298.47 209.941 300.26 212.025 301.843L210.437 303.443C212.194 304.783 214.055 305.986 216.003 307.043L217.271 305.243C219.664 306.542 222.18 307.611 224.784 308.435L223.968 310.418C226.152 311.106 228.385 311.635 230.648 312.001L231.085 309.928C233.517 310.325 235.978 310.526 238.443 310.528C238.765 310.528 239.081 310.513 239.401 310.506L239.457 312.614C241.761 312.567 244.058 312.357 246.331 311.986L245.891 309.914C248.619 309.469 251.298 308.769 253.892 307.826L254.81 309.773C256.927 309.002 258.982 308.076 260.957 307.001L259.683 305.201C262.026 303.924 264.234 302.421 266.273 300.714L267.945 302.249C269.6 300.861 271.137 299.345 272.541 297.714L270.617 296.44C272.283 294.511 273.73 292.409 274.933 290.173L277.112 291.073C278.09 289.251 278.901 287.348 279.536 285.386L277.219 284.81C277.978 282.468 278.457 280.048 278.647 277.598L281.044 277.742C281.111 276.887 281.146 276.018 281.146 275.156C281.146 273.997 281.085 272.838 280.965 271.685L278.577 271.878C278.32 269.431 277.776 267.02 276.955 264.695L279.245 264.074C278.557 262.126 277.694 260.242 276.669 258.442L274.511 259.388C273.246 257.179 271.741 255.11 270.023 253.217L271.918 251.899C270.473 250.301 268.898 248.819 267.21 247.468L265.586 249.029C263.499 247.366 261.25 245.911 258.871 244.683L260.095 242.859C258.092 241.825 256.012 240.94 253.873 240.213L253.002 242.185C250.385 241.293 247.687 240.647 244.944 240.257L245.33 238.179ZM238.352 240.658L238.364 242.823C235.815 242.828 233.272 243.065 230.767 243.532L230.257 241.414C232.926 240.917 235.636 240.664 238.352 240.658ZM271.354 275.158C271.354 291.078 256.59 304.03 238.442 304.03C220.295 304.03 205.53 291.08 205.53 275.16C205.53 259.24 220.295 246.286 238.444 246.286C256.594 246.286 271.354 259.238 271.354 275.16V275.158ZM224.164 243.021L225.06 245.037C222.705 245.843 220.435 246.871 218.282 248.107L216.931 246.297C219.228 244.977 221.65 243.88 224.164 243.021ZM211.906 249.721L213.571 251.321C211.711 252.815 210.014 254.493 208.507 256.33L206.504 255.067C208.111 253.106 209.921 251.315 211.905 249.72L211.906 249.721ZM203.214 259.843L205.424 260.806C204.291 262.789 203.391 264.891 202.743 267.073L200.353 266.532C201.045 264.203 202.005 261.959 203.214 259.843ZM199.112 275.16C199.115 274.117 199.172 273.075 199.283 272.038L201.739 272.231C201.637 273.197 201.582 274.173 201.582 275.161C201.584 276.422 201.671 277.681 201.841 278.931L199.393 279.18C199.211 277.847 199.117 276.505 199.112 275.16ZM200.642 284.653L203.015 284.053C203.727 286.22 204.685 288.301 205.871 290.258L203.682 291.276C202.416 289.188 201.396 286.966 200.639 284.653H200.642ZM207.105 295.98L209.072 294.672C210.635 296.472 212.384 298.109 214.289 299.557L212.672 301.191C210.639 299.646 208.773 297.9 207.105 295.98ZM217.791 304.507L219.089 302.667C221.276 303.854 223.576 304.831 225.955 305.584L225.118 307.621C222.58 306.817 220.126 305.774 217.791 304.507ZM238.444 309.663C236.039 309.661 233.638 309.465 231.265 309.076L231.713 306.947C233.938 307.312 236.19 307.495 238.445 307.497C238.739 307.497 239.03 307.485 239.324 307.478L239.382 309.643C239.065 309.648 238.756 309.663 238.444 309.663ZM245.709 309.063L245.255 306.935C247.748 306.528 250.196 305.889 252.566 305.026L253.512 307.026C250.983 307.947 248.37 308.628 245.708 309.062L245.709 309.063ZM259.164 304.467L257.861 302.628C260.004 301.461 262.023 300.088 263.887 298.528L265.591 300.092C263.602 301.756 261.449 303.222 259.164 304.467ZM269.829 295.922L267.86 294.622C269.383 292.858 270.706 290.937 271.806 288.893L274.044 289.814C272.869 291.994 271.455 294.042 269.829 295.922ZM276.271 284.577L273.897 283.987C274.592 281.846 275.031 279.634 275.207 277.394L277.668 277.542C277.481 279.932 277.012 282.293 276.271 284.578V284.577ZM277.597 271.959L275.141 272.159C274.906 269.922 274.408 267.719 273.657 265.594L276.016 264.954C276.816 267.222 277.347 269.572 277.597 271.959ZM273.636 259.775L271.429 260.742C270.272 258.722 268.897 256.83 267.327 255.099L269.26 253.755C270.935 255.601 272.403 257.62 273.636 259.775ZM264.925 249.675L263.262 251.275C261.351 249.752 259.291 248.418 257.111 247.294L258.364 245.43C260.687 246.627 262.884 248.047 264.921 249.67L264.925 249.675ZM252.645 242.998L251.751 245.014C249.36 244.2 246.896 243.61 244.392 243.252L244.787 241.115C247.46 241.496 250.09 242.125 252.641 242.993L252.645 242.998Z" fill="#D1E4FF" fill-opacity="0.32"/>
</g>
</svg>
