<svg width="259" height="266" viewBox="0 0 259 266" fill="none" xmlns="http://www.w3.org/2000/svg">
<path d="M255.021 97.6071L240.969 73.1304L218.959 76.3665L200.786 53.5328L210.153 30.7972L185.615 14.5107L167.294 32.9863L143.169 28.7571L133.387 0.381348L104.065 3.48143L102.406 28.3021L80.5584 39.4025L57.4314 23.029L33.9724 40.1145L46.1624 66.3842L32.2034 87.4178L6.8414 86.0698L0.213379 117.354L24.3484 126.64L26.4244 152.93L1.40637 167.296L13.3634 194.422L39.2574 190.396L56.4134 210.196L47.4394 234.876L71.1624 251.631L89.6744 231.6L115.36 238.548L123.357 265.058L151.903 263.132L155.588 239.32L180.057 225.269L200.086 241.257L225.408 222.38L212.608 200.079L225.087 177.726L250.761 179.618L258.637 150.508L236.597 138.572L233.657 112.044L255.021 97.6071ZM155.586 183.27C145.69 188.953 134.33 191.573 122.945 190.799C111.559 190.026 100.658 185.893 91.6214 178.924C82.5844 171.955 75.8167 162.463 72.1743 151.647C68.5319 140.832 68.1783 129.179 71.1583 118.163C74.1382 107.147 80.3178 97.2615 88.9156 89.7574C97.5135 82.2533 108.143 77.4673 119.461 76.0046C130.779 74.5419 142.276 76.4683 152.499 81.5402C162.722 86.612 171.212 94.6015 176.894 104.498C180.668 111.07 183.109 118.32 184.081 125.835C185.052 133.35 184.533 140.983 182.554 148.298C180.576 155.612 177.176 162.466 172.549 168.466C167.921 174.467 162.158 179.497 155.586 183.27Z" fill="#E9F0FF"/>
<path d="M152.413 116.459C150.985 114.407 149.414 112.457 147.713 110.624C142.911 105.762 136.61 102.66 129.828 101.818C124.845 101.187 119.782 101.817 115.105 103.65C110.428 105.484 106.286 108.461 103.058 112.311C99.2457 116.852 96.8608 122.419 96.2034 128.311C95.4773 134.644 96.7976 141.043 99.9712 146.571C103.145 152.099 108.005 156.465 113.839 159.031C119.261 161.434 125.272 162.182 131.117 161.179C135.259 160.452 139.204 158.869 142.7 156.531C146.196 154.194 149.166 151.153 151.421 147.604C153.676 144.054 155.167 140.073 155.797 135.915C156.428 131.758 156.185 127.514 155.083 123.455C154.357 121.063 153.464 118.723 152.411 116.455C152.522 116.579 152.614 116.719 152.684 116.869L153.394 118.14C153.793 118.824 154.133 119.541 154.409 120.283C154.849 121.271 155.214 122.291 155.501 123.333C156.367 126.181 156.785 129.145 156.742 132.12C156.705 136.505 155.733 140.831 153.891 144.809C152.048 148.788 149.378 152.327 146.058 155.191C141.852 158.803 136.753 161.22 131.294 162.191C125.245 163.259 119.016 162.507 113.394 160.031C107.337 157.382 102.291 152.858 98.9995 147.124C95.7079 141.39 94.3449 134.751 95.1114 128.184C95.8068 122.083 98.298 116.325 102.269 111.641C105.858 107.416 110.514 104.23 115.752 102.416C119.899 100.992 124.302 100.469 128.668 100.883C133.033 101.297 137.259 102.638 141.064 104.816C143.657 106.278 146.006 108.133 148.029 110.316C148.785 111.089 149.482 111.918 150.112 112.796C150.614 113.408 151.061 114.063 151.449 114.752C151.749 115.252 151.99 115.667 152.192 116.006C152.288 116.146 152.362 116.298 152.413 116.459Z" fill="#F5F5F5"/>
<path d="M179.863 52.1995C180.121 52.3685 172.232 64.8099 162.244 79.9853C152.256 95.1607 143.944 107.328 143.689 107.159C143.434 106.99 151.319 94.5487 161.31 79.3703C171.301 64.1919 179.606 52.0295 179.863 52.1995Z" fill="#F5F5F5"/>
<path d="M208.204 153.177C208.145 153.335 205.217 152.372 200.466 150.902C195.715 149.432 189.121 147.502 181.754 145.702C174.387 143.902 167.644 142.581 162.748 141.702C157.852 140.823 154.812 140.324 154.832 140.158C155.556 140.084 156.287 140.108 157.005 140.229C158.397 140.344 160.405 140.576 162.873 140.921C167.816 141.606 174.613 142.814 182.019 144.621C189.425 146.428 196.01 148.488 200.712 150.156C203.065 150.988 204.952 151.705 206.24 152.246C206.933 152.468 207.593 152.781 208.204 153.177Z" fill="#F5F5F5"/>
<path d="M138.843 159.854C138.985 159.81 139.924 162.39 141.221 166.631C142.518 170.872 144.148 176.782 145.681 183.373C147.214 189.964 148.353 195.991 149.056 200.373C149.759 204.755 150.056 207.481 149.909 207.504C149.762 207.527 149.18 204.849 148.278 200.517C147.376 196.185 146.117 190.206 144.591 183.63C143.065 177.054 141.56 171.134 140.458 166.847C139.356 162.56 138.689 159.9 138.843 159.854Z" fill="#F5F5F5"/>
<path d="M107.677 156.322C107.942 156.483 102.753 165.571 96.0894 176.622C89.4254 187.674 83.8064 196.505 83.5424 196.346C83.2784 196.187 88.4654 187.099 95.1324 176.045C101.799 164.992 107.413 156.163 107.677 156.322Z" fill="#F5F5F5"/>
<path d="M103.254 57.9616C103.549 57.8716 106.776 67.4948 110.462 79.4542C114.148 91.4135 116.895 101.186 116.6 101.278C116.305 101.37 113.079 91.7475 109.392 79.7832C105.705 67.8188 102.959 58.0506 103.254 57.9616Z" fill="#F5F5F5"/>
<path d="M96.7233 125.879C96.6933 126.188 88.6292 125.669 78.7122 124.721C68.7952 123.773 60.7763 122.758 60.8053 122.45C60.8343 122.142 68.8973 122.66 78.8173 123.608C88.7373 124.556 96.7523 125.572 96.7233 125.879Z" fill="#F5F5F5"/>
<path d="M148.9 137.949C152.377 125.273 144.92 112.179 132.245 108.702C119.57 105.225 106.477 112.682 103 125.358C99.5231 138.033 106.98 151.127 119.655 154.604C132.33 158.081 145.424 150.624 148.9 137.949Z" fill="#E9F0FF"/>
<path d="M137.448 131.835C137.33 131.967 136.206 131.025 134.177 129.896C131.556 128.41 128.658 127.475 125.662 127.151C122.666 126.826 119.635 127.118 116.756 128.009C114.533 128.677 113.234 129.357 113.147 129.202C113.077 129.092 114.254 128.153 116.498 127.261C119.451 126.117 122.634 125.697 125.782 126.038C128.93 126.38 131.95 127.471 134.588 129.221C136.591 130.573 137.54 131.745 137.448 131.835Z" fill="#EBEBEB"/>
<path d="M127.912 117.89C128.222 118.063 125.261 122.558 124.159 128.93C122.972 135.29 124.184 140.53 123.833 140.589C123.592 140.716 121.833 135.373 123.057 128.732C124.219 122.082 127.733 117.686 127.912 117.89Z" fill="#EBEBEB"/>
</svg>
