<svg width="88" height="91" viewBox="0 0 88 91" fill="none" xmlns="http://www.w3.org/2000/svg">
<path d="M86.0706 33.6404L81.3306 25.3852L73.9116 26.4802L67.7816 18.78L70.9406 11.1108L62.6646 5.61765L56.4856 11.8488L48.3486 10.4228L45.0486 0.853516L35.1586 1.89755L34.5986 10.2698L27.2306 14.0119L19.4306 8.48973L11.5116 14.2499L15.6236 23.1111L10.9116 30.2043L2.35559 29.7513L0.121582 40.3036L8.2616 43.4357L8.96158 52.303L0.522583 57.1491L4.55759 66.2984L13.2916 64.9423L19.0776 71.6215L16.0506 79.9457L24.0506 85.5969L30.2946 78.8397L38.9586 81.1828L41.6536 90.125L51.2836 89.476L52.5256 81.4438L60.7816 76.7037L67.5356 82.0938L76.0766 75.7276L71.7566 68.2054L75.9656 60.6652L84.6266 61.3042L87.2826 51.4839L79.8496 47.4578L78.8596 38.5136L86.0706 33.6404ZM52.5306 62.5413C49.1925 64.458 45.361 65.3418 41.5206 65.0809C37.6802 64.8201 34.0034 63.4262 30.9551 61.0756C27.9069 58.725 25.6242 55.5232 24.3956 51.8752C23.167 48.2272 23.0477 44.2967 24.0529 40.5809C25.058 36.8651 27.1424 33.5309 30.0425 30.9997C32.9426 28.4686 36.5281 26.8543 40.3456 26.3611C44.1631 25.8678 48.0412 26.5176 51.4894 28.2285C54.9376 29.9393 57.801 32.6342 59.7176 35.9725C62.2876 40.4488 62.9742 45.7628 61.6263 50.7454C60.2785 55.7279 57.0067 59.971 52.5306 62.5413Z" fill="#E9F0FF"/>
<path d="M51.4606 40.0012C50.9786 39.3098 50.4497 38.6522 49.8776 38.0332C48.2571 36.3932 46.1316 35.3466 43.8436 35.0621C42.1627 34.8493 40.4553 35.0618 38.8778 35.6802C37.3003 36.2985 35.9033 37.3028 34.8146 38.6012C33.5272 40.1333 32.7223 42.0123 32.5016 44.0013C32.2572 46.1374 32.7028 48.2956 33.7733 50.1602C34.8437 52.0247 36.4828 53.4977 38.4507 54.3636C40.2795 55.1742 42.3071 55.4261 44.2786 55.0877C46.0624 54.7787 47.7317 53.9999 49.1146 52.8316C50.3201 51.8122 51.2693 50.5239 51.8857 49.0705C52.7939 46.9515 52.9619 44.5884 52.3626 42.3623C52.1177 41.556 51.817 40.7678 51.4626 40.0032C51.4997 40.0454 51.5307 40.0925 51.5546 40.1432L51.7936 40.5722C51.9283 40.8031 52.043 41.045 52.1366 41.2953C52.2856 41.6284 52.409 41.9724 52.5056 42.3243C52.7975 43.2848 52.9389 44.2846 52.9247 45.2884C52.9121 46.7667 52.5845 48.2255 51.9637 49.5672C51.343 50.909 50.4433 52.103 49.3246 53.0696C47.9053 54.2873 46.1857 55.1026 44.3446 55.4307C42.3046 55.7896 40.2039 55.5363 38.3076 54.7026C36.264 53.8099 34.5614 52.2838 33.4511 50.3495C32.3409 48.4153 31.8818 46.1754 32.1416 43.9603C32.3725 41.9004 33.2107 39.9556 34.5497 38.3732C35.76 36.9477 37.3306 35.873 39.0976 35.2611C40.4964 34.7814 41.9814 34.6056 43.4535 34.7452C44.9256 34.8849 46.351 35.3369 47.6346 36.0711C48.5086 36.5647 49.3009 37.1904 49.9836 37.9262C50.238 38.1873 50.472 38.4675 50.6836 38.7642C50.8529 38.9705 51.0042 39.191 51.1357 39.4232L51.3846 39.8462C51.4176 39.8938 51.4432 39.9461 51.4606 40.0012Z" fill="#F5F5F5"/>
<path d="M60.7196 18.3277C60.8076 18.3857 58.1456 22.5808 54.7776 27.6999C51.4096 32.8191 48.6056 36.9222 48.5196 36.8652C48.4336 36.8082 51.0916 32.6121 54.4626 27.4919C57.8336 22.3718 60.6336 18.2737 60.7196 18.3277Z" fill="#F5F5F5"/>
<path d="M70.2784 52.3876C69.3946 52.1813 68.5232 51.9252 67.6684 51.6206C66.0684 51.1206 63.8424 50.4746 61.3564 49.8675C58.8704 49.2605 56.5974 48.8155 54.9464 48.5175C54.0473 48.394 53.1559 48.2201 52.2764 47.9965C52.5207 47.9717 52.7672 47.9797 53.0094 48.0205C53.4784 48.0595 54.1553 48.1385 54.9883 48.2535C56.6553 48.4855 58.9484 48.8925 61.4474 49.5005C63.9464 50.1085 66.1653 50.8006 67.7473 51.3676C68.5403 51.6496 69.1784 51.8916 69.6114 52.0726C69.8468 52.1473 70.0711 52.2533 70.2784 52.3876Z" fill="#F5F5F5"/>
<path d="M46.8828 54.6396C47.215 55.3771 47.4827 56.142 47.6828 56.9257C48.1208 58.3568 48.6698 60.3498 49.1828 62.5729C49.6958 64.7959 50.0828 66.829 50.3208 68.306C50.4859 69.0979 50.5822 69.9026 50.6088 70.7111C50.37 69.9397 50.1862 69.1524 50.0588 68.355C49.7588 66.893 49.3308 64.8759 48.8148 62.6549C48.2988 60.4338 47.7928 58.4398 47.4218 56.9937C47.1868 56.2227 47.0067 55.4361 46.8828 54.6396Z" fill="#F5F5F5"/>
<path d="M36.3718 53.4479C36.4608 53.5029 34.7108 56.569 32.4628 60.2951C30.2148 64.0212 28.3198 67.0013 28.2308 66.9463C28.1418 66.8913 29.8898 63.8292 32.1398 60.0961C34.3898 56.363 36.2828 53.3959 36.3718 53.4479Z" fill="#F5F5F5"/>
<path d="M34.8804 20.2678C34.9804 20.2378 36.0684 23.4839 37.3104 27.518C38.5524 31.5521 39.4814 34.8472 39.3814 34.8782C39.2814 34.9092 38.1944 31.6641 36.9504 27.629C35.7064 23.5939 34.7804 20.3028 34.8804 20.2678Z" fill="#F5F5F5"/>
<path d="M32.6775 43.1804C28.6195 43.0447 24.5738 42.6581 20.5635 42.0229C24.6216 42.157 28.6674 42.5435 32.6775 43.1804Z" fill="#F5F5F5"/>
<path d="M49.4978 41.1317C50.2884 42.5085 50.6529 44.0888 50.5453 45.6728C50.4377 47.2568 49.8629 48.7734 48.8935 50.0306C47.924 51.2879 46.6035 52.2295 45.099 52.7362C43.5944 53.243 41.9734 53.2922 40.4409 52.8777C38.9084 52.4632 37.5332 51.6035 36.4892 50.4073C35.4453 49.2112 34.7795 47.7324 34.576 46.1578C34.3725 44.5833 34.6404 42.9837 35.346 41.5615C36.0516 40.1393 37.163 38.9582 38.5398 38.1676C40.386 37.1078 42.5776 36.8247 44.6325 37.3806C46.6875 37.9364 48.4375 39.2857 49.4978 41.1317Z" fill="#E9F0FF"/>
<path d="M46.4137 45.1891C46.0348 44.9925 45.6676 44.7744 45.3137 44.5358C44.4297 44.0347 43.4526 43.7198 42.4424 43.6104C41.4323 43.501 40.4104 43.5994 39.4397 43.8996C39.0414 44.0555 38.6348 44.1891 38.2217 44.2998C38.5415 43.9958 38.9287 43.772 39.3517 43.6465C40.3471 43.2602 41.4207 43.1186 42.4822 43.2337C43.5437 43.3487 44.5621 43.7171 45.4517 44.3078C46.1247 44.7669 46.4457 45.1591 46.4137 45.1891Z" fill="#EBEBEB"/>
<path d="M43.1976 40.486C42.6496 41.6813 42.2251 42.9295 41.9306 44.2111C41.7612 45.5133 41.7247 46.8295 41.8216 48.1392C41.4096 46.8472 41.3196 45.4741 41.5594 44.1393C41.7992 42.8046 42.3616 41.5487 43.1976 40.481V40.486Z" fill="#EBEBEB"/>
</svg>
