<svg width="205" height="210" viewBox="0 0 205 210" fill="none" xmlns="http://www.w3.org/2000/svg">
<path d="M201.939 77.1402L190.848 57.8237L173.48 60.3807L159.14 42.3612L166.531 24.4197L147.165 11.5644L132.707 26.1428L113.672 22.8067L105.953 0.414062L82.8134 2.85713L81.5045 22.4427L64.2635 31.2019L46.0095 18.2796L27.4965 31.7639L37.1165 52.4945L26.0995 69.095L6.08347 68.03L0.855469 92.7197L19.9015 100.048L21.5405 120.794L1.79544 132.132L11.2325 153.538L31.6725 150.365L45.2115 165.993L38.1305 185.468L56.8495 198.691L71.4594 182.881L91.7295 188.365L98.0294 209.287L120.557 207.766L123.464 188.975L142.783 177.884L158.583 190.497L178.565 175.597L168.465 157.997L178.312 140.357L198.574 141.85L204.788 118.875L187.396 109.457L185.08 88.5265L201.939 77.1402ZM123.469 144.742C115.659 149.227 106.695 151.295 97.7094 150.685C88.7239 150.075 80.1211 146.814 72.9889 141.315C65.8568 135.815 60.5156 128.324 57.6408 119.789C54.7661 111.253 54.4869 102.057 56.8385 93.3634C59.1902 84.6695 64.067 76.8681 70.8524 70.946C77.6378 65.0238 86.0269 61.2469 94.9588 60.0928C103.891 58.9387 112.964 60.4592 121.032 64.4622C129.1 68.4651 135.799 74.7707 140.283 82.5814C146.296 93.054 147.902 105.486 144.75 117.143C141.597 128.8 133.944 138.728 123.472 144.742H123.469Z" fill="#E9F0FF"/>
<path d="M120.963 92.0167C119.84 90.3977 118.604 88.8605 117.263 87.4166C113.473 83.5796 108.501 81.1313 103.148 80.4664C99.2154 79.9681 95.2202 80.4647 91.529 81.9108C87.8377 83.357 84.5683 85.7063 82.0204 88.7436C79.0106 92.3275 77.1279 96.7216 76.6094 101.373C76.037 106.37 77.0792 111.42 79.5835 115.782C82.0877 120.144 85.9224 123.59 90.5264 125.616C94.8049 127.513 99.5489 128.102 104.161 127.309C107.43 126.735 110.543 125.486 113.302 123.642C116.061 121.798 118.406 119.398 120.185 116.597C121.965 113.796 123.141 110.654 123.639 107.373C124.137 104.092 123.945 100.743 123.075 97.5399C122.503 95.6528 121.798 93.8086 120.966 92.0207C121.054 92.1176 121.128 92.2272 121.183 92.3457C121.336 92.6187 121.519 92.9457 121.743 93.3507C122.058 93.8903 122.325 94.4557 122.543 95.0408C122.89 95.8198 123.178 96.6237 123.404 97.4459C124.087 99.693 124.417 102.033 124.382 104.381C124.354 107.841 123.587 111.255 122.133 114.395C120.68 117.535 118.572 120.328 115.952 122.589C112.632 125.438 108.608 127.344 104.3 128.11C99.5276 128.954 94.6115 128.363 90.1754 126.41C85.3954 124.319 81.4133 120.748 78.8159 116.223C76.2185 111.699 75.1432 106.459 75.7484 101.277C76.2982 96.4626 78.2637 91.9195 81.3964 88.2226C84.229 84.8878 87.9039 82.3734 92.0384 80.9414C95.3111 79.8191 98.7856 79.4081 102.23 79.7358C105.674 80.0634 109.009 81.1222 112.011 82.8414C114.058 83.9954 115.914 85.4598 117.511 87.1826C118.108 87.7932 118.657 88.4477 119.155 89.1406C119.55 89.6242 119.903 90.1408 120.209 90.6847C120.443 91.0797 120.636 91.4047 120.794 91.6747C120.867 91.7798 120.924 91.8951 120.963 92.0167Z" fill="#E0E0E0"/>
<path d="M142.627 41.3066C142.827 41.4406 136.604 51.2588 128.727 63.2332C120.85 75.2075 114.286 84.8108 114.083 84.6768C113.88 84.5428 120.1 74.7265 127.987 62.7482C135.874 50.7698 142.424 41.1726 142.627 41.3066Z" fill="#E0E0E0"/>
<path d="M164.993 120.994C162.926 120.508 160.887 119.907 158.887 119.194C155.137 118.033 149.935 116.512 144.121 115.094C138.307 113.675 132.986 112.632 129.121 111.935C127.018 111.645 124.932 111.238 122.875 110.716C123.446 110.659 124.022 110.679 124.589 110.774C125.689 110.864 127.271 111.047 129.22 111.318C133.12 111.859 138.486 112.818 144.33 114.235C150.174 115.653 155.372 117.287 159.083 118.604C160.939 119.262 162.429 119.828 163.444 120.253C163.991 120.43 164.512 120.679 164.993 120.994Z" fill="#E0E0E0"/>
<path d="M110.255 126.263C111.035 127.988 111.663 129.777 112.132 131.611C113.156 134.957 114.442 139.62 115.653 144.823C116.864 150.026 117.76 154.783 118.316 158.237C118.703 160.09 118.929 161.973 118.989 163.865C118.431 162.059 118.001 160.217 117.703 158.351C116.991 154.932 115.996 150.212 114.792 145.023C113.588 139.834 112.4 135.162 111.532 131.781C110.978 129.974 110.551 128.13 110.255 126.263Z" fill="#E0E0E0"/>
<path d="M85.6624 123.476C85.8704 123.601 81.7774 130.776 76.5174 139.496C71.2574 148.215 66.8244 155.184 66.6174 155.059C66.4104 154.934 70.5024 147.759 75.7624 139.04C81.0224 130.32 85.4534 123.35 85.6624 123.476Z" fill="#E0E0E0"/>
<path d="M82.1713 45.8526C82.4053 45.7796 84.9513 53.3738 87.8583 62.813C90.7653 72.2523 92.9363 79.9625 92.7033 80.0345C92.4703 80.1065 89.9253 72.5143 87.0163 63.0731C84.1073 53.6318 81.9393 45.9236 82.1713 45.8526Z" fill="#E0E0E0"/>
<path d="M77.0164 99.4544C76.9944 99.6964 70.6294 99.2884 62.8044 98.5404C54.9794 97.7924 48.6504 96.9913 48.6724 96.7483C48.6944 96.5053 55.0594 96.9143 62.8874 97.6624C70.7154 98.4104 77.0404 99.2084 77.0164 99.4544Z" fill="#E0E0E0"/>
<path d="M105.158 122.09C115.146 119.289 120.973 108.922 118.173 98.9334C115.372 88.945 105.005 83.118 95.0168 85.9185C85.0286 88.719 79.2018 99.0865 82.0022 109.075C84.8027 119.063 95.1698 124.89 105.158 122.09Z" fill="#E9F0FF"/>
<path d="M109.156 104.153C108.268 103.691 107.406 103.18 106.574 102.624C104.505 101.451 102.218 100.714 99.8541 100.457C97.4899 100.201 95.0984 100.431 92.8265 101.134C91.8955 101.5 90.9446 101.814 89.9785 102.075C90.7264 101.362 91.6326 100.838 92.6225 100.544C94.9524 99.6406 97.4649 99.3099 99.949 99.5793C102.433 99.8487 104.816 100.71 106.899 102.092C108.479 103.158 109.227 104.08 109.156 104.153Z" fill="#EBEBEB"/>
<path d="M101.63 93.1455C101.876 93.2815 99.5376 96.8286 98.6686 101.859C97.7326 106.878 98.6876 111.016 98.4106 111.059C98.2226 111.159 96.8286 106.943 97.7986 101.704C98.7146 96.4546 101.487 92.9845 101.63 93.1455Z" fill="#EBEBEB"/>
</svg>
