<svg width="120" height="123" viewBox="0 0 120 123" fill="none" xmlns="http://www.w3.org/2000/svg">
<path d="M118.061 45.5342L111.572 34.2338L101.411 35.7269L93.0232 25.1866L97.3462 14.6863L86.0192 7.16909L77.5602 15.6963L66.4242 13.7503L61.9092 0.649902L48.3722 2.07894L47.6042 13.5373L37.5182 18.6574L26.8412 11.1002L16.0142 18.9874L21.6412 31.1148L15.1972 40.824L3.48718 40.202L0.429199 54.6434L11.5722 58.9305L12.5302 71.0669L0.980225 77.6991L6.50122 90.2214L18.4542 88.3694L26.3742 97.5116L22.2302 108.904L33.1822 116.64L41.7282 107.392L53.5872 110.599L57.2742 122.839L70.4532 121.949L72.1532 110.957L83.4532 104.469L92.6962 111.847L104.388 103.134L98.4762 92.8335L104.237 82.5142L116.088 83.3882L119.725 69.9499L109.554 64.4447L108.2 52.1993L118.061 45.5342ZM72.1542 85.0803C67.5852 87.7034 62.3411 88.9127 57.0849 88.5553C51.8287 88.1979 46.7965 86.2898 42.6247 83.0723C38.4529 79.8549 35.3289 75.4725 33.6476 70.4795C31.9664 65.4864 31.8036 60.107 33.1796 55.0214C34.5557 49.9357 37.4088 45.3724 41.3783 41.9084C45.3478 38.4444 50.2553 36.2354 55.4803 35.5606C60.7052 34.8858 66.013 35.7756 70.7322 38.1175C75.4515 40.4593 79.3704 44.1481 81.9932 48.7173C83.7351 51.7509 84.8623 55.0979 85.3105 58.5672C85.7587 62.0365 85.5191 65.5601 84.6055 68.9368C83.6918 72.3135 82.1219 75.4772 79.9855 78.2471C77.8491 81.017 75.188 83.3389 72.1542 85.0803Z" fill="#E9F0FF"/>
<path d="M70.6902 54.2373C70.5822 54.3053 69.9902 53.1922 68.4232 51.6372C66.2019 49.4635 63.3221 48.0883 60.2352 47.7271C57.7371 47.4219 55.2034 47.8183 52.9178 48.8716C50.6322 49.925 48.6849 51.5938 47.294 53.6913C45.9032 55.7887 45.1236 58.232 45.0426 60.7474C44.9617 63.2628 45.5825 65.7511 46.8357 67.9337C48.0888 70.1162 49.9247 71.9068 52.1379 73.105C54.351 74.3031 56.854 74.8615 59.3666 74.7177C61.8791 74.5738 64.302 73.7333 66.3639 72.2904C68.4259 70.8474 70.0454 68.8589 71.0412 66.5476C72.2854 63.6987 72.5495 60.5175 71.7922 57.5024C71.2392 55.3693 70.5772 54.2963 70.6922 54.2373C70.7302 54.2163 70.9062 54.4703 71.2102 54.9833C71.6533 55.7349 72.0035 56.5374 72.2532 57.3734C73.229 60.4947 73.084 63.8589 71.8432 66.8846C71.1079 68.6797 70.0206 70.3092 68.6453 71.6772C67.27 73.0452 65.6347 74.1239 63.8359 74.8496C62.037 75.5753 60.1109 75.9334 58.1714 75.9027C56.2319 75.872 54.3182 75.4531 52.5432 74.6709C49.6766 73.4215 47.2883 71.2827 45.7314 68.5708C44.1745 65.8589 43.5318 62.7179 43.8982 59.6124C44.1171 57.685 44.7198 55.8209 45.6708 54.1301C46.6217 52.4394 47.9017 50.9562 49.4351 49.7682C50.9685 48.5801 52.7244 47.7112 54.599 47.2128C56.4737 46.7144 58.4292 46.5965 60.3502 46.8661C63.5895 47.3196 66.5683 48.8913 68.7712 51.3092C69.3679 51.9441 69.885 52.6493 70.3112 53.4093C70.5952 53.9333 70.7272 54.2163 70.6902 54.2373Z" fill="#EBEBEB"/>
<path d="M83.3634 24.5734C83.6454 24.7594 80.1384 30.5916 75.5264 37.5958C70.9144 44.6 66.9474 50.1301 66.6644 49.9441C66.3814 49.7581 69.8904 43.929 74.5024 36.9218C79.1144 29.9146 83.0814 24.3874 83.3634 24.5734Z" fill="#EBEBEB"/>
<path d="M96.4463 71.1897C96.3213 71.5237 90.9354 69.7257 84.1524 68.0816C77.3744 66.4176 71.7663 65.5316 71.8083 65.1816C71.8363 64.8615 77.5763 65.2076 84.4433 66.8956C91.3144 68.5556 96.5683 70.8937 96.4463 71.1897Z" fill="#EBEBEB"/>
<path d="M64.4282 74.2725C64.7412 74.1725 66.5162 78.9437 67.9282 85.0508C69.3402 91.158 69.8613 96.2202 69.5343 96.2692C69.1903 96.3232 68.1472 91.382 66.7342 85.3259C65.3212 79.2697 64.0932 74.3755 64.4282 74.2725Z" fill="#EBEBEB"/>
<path d="M50.0394 72.6388C50.3294 72.8158 48.0714 77.0929 44.9944 82.1931C41.9174 87.2932 39.1884 91.2933 38.8944 91.1163C38.6004 90.9393 40.8624 86.6642 43.9394 81.56C47.0164 76.4559 49.7494 72.4648 50.0394 72.6388Z" fill="#EBEBEB"/>
<path d="M47.9983 27.2321C48.3233 27.1321 49.9643 31.5323 51.6643 37.0494C53.3643 42.5666 54.4823 47.1287 54.1643 47.2297C53.8463 47.3307 52.1983 42.9296 50.4983 37.4094C48.7983 31.8893 47.6753 27.3331 47.9983 27.2321Z" fill="#EBEBEB"/>
<path d="M44.9811 58.5883C44.9501 58.9254 41.2121 58.8454 36.6331 58.4072C32.0541 57.969 28.3691 57.3428 28.4001 57.0067C28.4311 56.6705 32.1721 56.7526 36.7511 57.1907C41.3301 57.6289 45.0141 58.2552 44.9811 58.5883Z" fill="#EBEBEB"/>
<path d="M68.002 55.7831C69.0836 57.6678 69.5821 59.8309 69.4345 61.9988C69.2869 64.1668 68.4997 66.2423 67.1725 67.9629C65.8454 69.6835 64.0379 70.972 61.9786 71.6653C59.9192 72.3587 57.7005 72.4258 55.603 71.8582C53.5055 71.2906 51.6234 70.1138 50.1947 68.4765C48.766 66.8393 47.8548 64.8151 47.5764 62.6601C47.298 60.505 47.6649 58.3157 48.6306 56.3691C49.5963 54.4226 51.1176 52.806 53.002 51.724C54.2534 51.0053 55.634 50.5402 57.0652 50.3553C58.4963 50.1703 59.9499 50.2691 61.3428 50.6461C62.7358 51.023 64.0409 51.6707 65.1835 52.5521C66.326 53.4336 67.2838 54.5315 68.002 55.7831Z" fill="#EBF1FF"/>
<path d="M63.7819 61.3355C63.5579 61.6105 61.4468 59.8475 58.3038 59.5255C55.1628 59.1674 52.7239 60.4365 52.5639 60.1255C52.3209 59.8975 54.7859 57.9254 58.4359 58.3104C62.0799 58.7104 64.0669 61.1665 63.7819 61.3355Z" fill="#E0E0E0"/>
<path d="M59.38 54.8982C59.68 55.0982 58.4881 57.2053 57.9961 60.0593C57.4611 62.9054 57.8451 65.2955 57.4961 65.3775C57.1961 65.4955 56.2081 62.9974 56.7901 59.8423C57.3431 56.6822 59.142 54.6862 59.38 54.8982Z" fill="#E0E0E0"/>
</svg>
